<?xml version="1.0" encoding="UTF-8" standalone="no"?><svg xmlns="http://www.w3.org/2000/svg" xmlns:xlink="http://www.w3.org/1999/xlink" clip-rule="evenodd" stroke-miterlimit="4.00" viewBox="0 0 1920 1080"><desc>SVG generated by Keynote</desc><defs></defs><g transform="matrix(1.00, 0.00, -0.00, -1.00, 0.0, 1080.0)"><g><clipPath id="clip-0"><path d="M 0.0 1080.0 L 1920.0 1080.0 L 1920.0 0.0 L 0.0 0.0 Z M 0.0 1080.0 "></path></clipPath><g clip-path="url(#clip-0)"><image xlink:href="88831F5924BAFE0A5231EE8BF08C848B.jpeg" width="1365.00" height="767.00" transform="matrix(1.41, 0.00, -0.00, -1.41, 0.0, 1080.0)"></image></g></g><text xml:space="preserve" font-family="Didot" font-size="106.0" fill="#846049" transform="matrix(1.00, 0.00, -0.00, -1.00, 288.0, 558.0)">L</text><text xml:space="preserve" font-family="Didot" font-size="106.0" fill="#846049" transform="matrix(1.00, 0.00, -0.00, -1.00, 360.6, 558.0)">o</text><text xml:space="preserve" font-family="Didot" font-size="106.0" fill="#846049" transform="matrix(1.00, 0.00, -0.00, -1.00, 419.5, 558.0)">a</text><text xml:space="preserve" font-family="Didot" font-size="106.0" fill="#846049" transform="matrix(1.00, 0.00, -0.00, -1.00, 470.5, 558.0)">d</text><text xml:space="preserve" font-family="Didot" font-size="106.0" fill="#846049" transform="matrix(1.00, 0.00, -0.00, -1.00, 533.4, 558.0)"> </text><text xml:space="preserve" font-family="Didot" font-size="106.0" fill="#846049" transform="matrix(1.00, 0.00, -0.00, -1.00, 553.3, 558.0)">T</text><text xml:space="preserve" font-family="Didot" font-size="106.0" fill="#846049" transform="matrix(1.00, 0.00, -0.00, -1.00, 612.6, 558.0)">e</text><text xml:space="preserve" font-family="Didot" font-size="106.0" fill="#846049" transform="matrix(1.00, 0.00, -0.00, -1.00, 665.6, 558.0)">s</text><text xml:space="preserve" font-family="Didot" font-size="106.0" fill="#846049" transform="matrix(1.00, 0.00, -0.00, -1.00, 710.7, 558.0)">t</text><text xml:space="preserve" font-family="Didot" font-size="106.0" fill="#846049" transform="matrix(1.00, 0.00, -0.00, -1.00, 746.0, 558.0)">i</text><text xml:space="preserve" font-family="Didot" font-size="106.0" fill="#846049" transform="matrix(1.00, 0.00, -0.00, -1.00, 777.4, 558.0)">n</text><text xml:space="preserve" font-family="Didot" font-size="106.0" fill="#846049" transform="matrix(1.00, 0.00, -0.00, -1.00, 842.2, 558.0)">g</text><text xml:space="preserve" font-family="Didot" font-size="106.0" fill="#846049" transform="matrix(1.00, 0.00, -0.00, -1.00, 897.2, 558.0)"> </text><text xml:space="preserve" font-family="Didot" font-size="106.0" fill="#846049" transform="matrix(1.00, 0.00, -0.00, -1.00, 926.6, 558.0)">u</text><text xml:space="preserve" font-family="Didot" font-size="106.0" fill="#846049" transform="matrix(1.00, 0.00, -0.00, -1.00, 989.5, 558.0)">s</text><text xml:space="preserve" font-family="Didot" font-size="106.0" fill="#846049" transform="matrix(1.00, 0.00, -0.00, -1.00, 1034.7, 558.0)">i</text><text xml:space="preserve" font-family="Didot" font-size="106.0" fill="#846049" transform="matrix(1.00, 0.00, -0.00, -1.00, 1066.0, 558.0)">n</text><text xml:space="preserve" font-family="Didot" font-size="106.0" fill="#846049" transform="matrix(1.00, 0.00, -0.00, -1.00, 1130.8, 558.0)">g</text><text xml:space="preserve" font-family="Didot" font-size="106.0" fill="#846049" transform="matrix(1.00, 0.00, -0.00, -1.00, 1185.8, 558.0)"> </text><text xml:space="preserve" font-family="Didot" font-size="106.0" fill="#846049" transform="matrix(1.00, 0.00, -0.00, -1.00, 1215.3, 558.0)">L</text><text xml:space="preserve" font-family="Didot" font-size="106.0" fill="#846049" transform="matrix(1.00, 0.00, -0.00, -1.00, 1287.9, 558.0)">o</text><text xml:space="preserve" font-family="Didot" font-size="106.0" fill="#846049" transform="matrix(1.00, 0.00, -0.00, -1.00, 1346.8, 558.0)">c</text><text xml:space="preserve" font-family="Didot" font-size="106.0" fill="#846049" transform="matrix(1.00, 0.00, -0.00, -1.00, 1397.8, 558.0)">u</text><text xml:space="preserve" font-family="Didot" font-size="106.0" fill="#846049" transform="matrix(1.00, 0.00, -0.00, -1.00, 1460.7, 558.0)">s</text><text xml:space="preserve" font-family="Didot" font-size="106.0" fill="#846049" transform="matrix(1.00, 0.00, -0.00, -1.00, 1505.8, 558.0)">t</text><text xml:space="preserve" font-family="Didot" font-size="106.0" fill="#846049" transform="matrix(1.00, 0.00, -0.00, -1.00, 1541.1, 558.0)">i</text><text xml:space="preserve" font-family="Didot" font-size="106.0" fill="#846049" transform="matrix(1.00, 0.00, -0.00, -1.00, 1572.5, 558.0)">o</text><text xml:space="preserve" font-family="Zapfino" font-style="italic" font-size="27.7" fill="#615B47" transform="matrix(1.00, 0.00, -0.00, -1.00, 859.0, 410.0)">V</text><text xml:space="preserve" font-family="Zapfino" font-style="italic" font-size="27.7" fill="#615B47" transform="matrix(1.00, 0.00, -0.00, -1.00, 889.5, 410.0)">i</text><text xml:space="preserve" font-family="Zapfino" font-style="italic" font-size="27.7" fill="#615B47" transform="matrix(1.00, 0.00, -0.00, -1.00, 902.1, 410.0)">n</text><text xml:space="preserve" font-family="Zapfino" font-style="italic" font-size="27.7" fill="#615B47" transform="matrix(1.00, 0.00, -0.00, -1.00, 920.2, 410.0)">a</text><text xml:space="preserve" font-family="Zapfino" font-style="italic" font-size="27.7" fill="#615B47" transform="matrix(1.00, 0.00, -0.00, -1.00, 939.9, 410.0)">y</text><text xml:space="preserve" font-family="Zapfino" font-style="italic" font-size="27.7" fill="#615B47" transform="matrix(1.00, 0.00, -0.00, -1.00, 955.6, 410.0)"> </text><text xml:space="preserve" font-family="Zapfino" font-style="italic" font-size="27.7" fill="#615B47" transform="matrix(1.00, 0.00, -0.00, -1.00, 969.5, 410.0)">B</text><text xml:space="preserve" font-family="Zapfino" font-style="italic" font-size="27.7" fill="#615B47" transform="matrix(1.00, 0.00, -0.00, -1.00, 1003.2, 410.0)">a</text><text xml:space="preserve" font-family="Zapfino" font-style="italic" font-size="27.7" fill="#615B47" transform="matrix(1.00, 0.00, -0.00, -1.00, 1022.9, 410.0)">b</text><text xml:space="preserve" font-family="Zapfino" font-style="italic" font-size="27.7" fill="#615B47" transform="matrix(1.00, 0.00, -0.00, -1.00, 1040.6, 410.0)">u</text><text xml:space="preserve" font-family="Arial-ItalicMT" font-style="italic" font-size="27.7" fill="#615B47" transform="matrix(1.00, 0.00, -0.00, -1.00, 876.0, 217.0)"> </text><text xml:space="preserve" font-family="Arial-ItalicMT" font-style="italic" font-size="27.7" fill="#615B47" transform="matrix(1.00, 0.00, -0.00, -1.00, 883.7, 217.0)"> </text><text xml:space="preserve" font-family="Arial-ItalicMT" font-style="italic" font-size="27.7" fill="#615B47" transform="matrix(1.00, 0.00, -0.00, -1.00, 891.4, 217.0)"> </text><text xml:space="preserve" font-family="Arial-ItalicMT" font-style="italic" font-size="27.7" fill="#615B47" transform="matrix(1.00, 0.00, -0.00, -1.00, 899.1, 217.0)"> </text><text xml:space="preserve" font-family="Arial-ItalicMT" font-style="italic" font-size="27.7" fill="#615B47" transform="matrix(1.00, 0.00, -0.00, -1.00, 906.8, 217.0)"> </text><text xml:space="preserve" font-family="Arial-ItalicMT" font-style="italic" font-size="27.7" fill="#615B47" transform="matrix(1.00, 0.00, -0.00, -1.00, 914.5, 217.0)">@</text><text xml:space="preserve" font-family="Arial-ItalicMT" font-style="italic" font-size="27.7" fill="#615B47" transform="matrix(1.00, 0.00, -0.00, -1.00, 942.6, 217.0)">m</text><text xml:space="preserve" font-family="Arial-ItalicMT" font-style="italic" font-size="27.7" fill="#615B47" transform="matrix(1.00, 0.00, -0.00, -1.00, 965.7, 217.0)">i</text><text xml:space="preserve" font-family="Arial-ItalicMT" font-style="italic" font-size="27.7" fill="#615B47" transform="matrix(1.00, 0.00, -0.00, -1.00, 971.9, 217.0)">n</text><text xml:space="preserve" font-family="Arial-ItalicMT" font-style="italic" font-size="27.7" fill="#615B47" transform="matrix(1.00, 0.00, -0.00, -1.00, 987.3, 217.0)">2</text><text xml:space="preserve" font-family="Arial-ItalicMT" font-style="italic" font-size="27.7" fill="#615B47" transform="matrix(1.00, 0.00, -0.00, -1.00, 1002.7, 217.0)">b</text><text xml:space="preserve" font-family="Arial-ItalicMT" font-style="italic" font-size="27.7" fill="#615B47" transform="matrix(1.00, 0.00, -0.00, -1.00, 1018.1, 217.0)">r</text><text xml:space="preserve" font-family="Arial-ItalicMT" font-style="italic" font-size="27.7" fill="#615B47" transform="matrix(1.00, 0.00, -0.00, -1.00, 1027.4, 217.0)">o</text><text xml:space="preserve" font-family="Didot-Bold" font-weight="bold" font-size="24.0" fill="#51563E" transform="matrix(1.00, 0.00, -0.00, -1.00, 953.0, 11.0)">1</text><g><clipPath id="clip-1"><path d="M 815.0 261.0 L 897.0 261.0 L 897.0 185.0 L 815.0 185.0 Z M 815.2 260.7 "></path></clipPath><g clip-path="url(#clip-1)"><image xlink:href="0C8D6B672313814FC02EB08E733C0582.png" width="82.00" height="76.00" transform="matrix(1.68, 0.00, -0.00, -1.70, 787.0, 287.0)"></image></g></g><image xlink:href="0388D2D79F212684F5CEACDDBFA8F545.png" width="80.00" height="72.00" transform="matrix(1.00, 0.00, -0.00, 1.00, 816.2, 186.7)"></image></g></svg>