<?xml version="1.0" encoding="UTF-8" standalone="no"?><svg xmlns="http://www.w3.org/2000/svg" xmlns:xlink="http://www.w3.org/1999/xlink" clip-rule="evenodd" stroke-miterlimit="4.00" viewBox="0 0 1920 1080"><desc>SVG generated by Keynote</desc><defs></defs><g transform="matrix(1.00, 0.00, -0.00, -1.00, 0.0, 1080.0)"><g><clipPath id="clip-89"><path d="M 0.0 1080.0 L 1920.0 1080.0 L 1920.0 0.0 L 0.0 0.0 Z M 0.0 1080.0 "></path></clipPath><g clip-path="url(#clip-89)"><image xlink:href="../../95F339C0-7E9C-479A-A4F3-8E8E57B86552/assets/88831F5924BAFE0A5231EE8BF08C848B.jpeg" width="1365.00" height="767.00" transform="matrix(1.41, 0.00, -0.00, -1.41, 0.0, 1080.0)"></image></g></g><text xml:space="preserve" font-family="Didot" font-size="106.0" fill="#846049" transform="matrix(1.00, 0.00, -0.00, -1.00, 462.0, 573.0)">T</text><text xml:space="preserve" font-family="Didot" font-size="106.0" fill="#846049" transform="matrix(1.00, 0.00, -0.00, -1.00, 534.5, 573.0)">h</text><text xml:space="preserve" font-family="Didot" font-size="106.0" fill="#846049" transform="matrix(1.00, 0.00, -0.00, -1.00, 599.3, 573.0)">a</text><text xml:space="preserve" font-family="Didot" font-size="106.0" fill="#846049" transform="matrix(1.00, 0.00, -0.00, -1.00, 650.3, 573.0)">n</text><text xml:space="preserve" font-family="Didot" font-size="106.0" fill="#846049" transform="matrix(1.00, 0.00, -0.00, -1.00, 715.0, 573.0)">k</text><text xml:space="preserve" font-family="Didot" font-size="106.0" fill="#846049" transform="matrix(1.00, 0.00, -0.00, -1.00, 771.9, 573.0)">s</text><text xml:space="preserve" font-family="Didot" font-size="106.0" fill="#846049" transform="matrix(1.00, 0.00, -0.00, -1.00, 817.1, 573.0)"> </text><text xml:space="preserve" font-family="Didot" font-size="106.0" fill="#846049" transform="matrix(1.00, 0.00, -0.00, -1.00, 846.6, 573.0)">f</text><text xml:space="preserve" font-family="Didot" font-size="106.0" fill="#846049" transform="matrix(1.00, 0.00, -0.00, -1.00, 880.8, 573.0)">o</text><text xml:space="preserve" font-family="Didot" font-size="106.0" fill="#846049" transform="matrix(1.00, 0.00, -0.00, -1.00, 939.7, 573.0)">r</text><text xml:space="preserve" font-family="Didot" font-size="106.0" fill="#846049" transform="matrix(1.00, 0.00, -0.00, -1.00, 982.9, 573.0)"> </text><text xml:space="preserve" font-family="Didot" font-size="106.0" fill="#846049" transform="matrix(1.00, 0.00, -0.00, -1.00, 1002.8, 573.0)">W</text><text xml:space="preserve" font-family="Didot" font-size="106.0" fill="#846049" transform="matrix(1.00, 0.00, -0.00, -1.00, 1106.1, 573.0)">a</text><text xml:space="preserve" font-family="Didot" font-size="106.0" fill="#846049" transform="matrix(1.00, 0.00, -0.00, -1.00, 1157.0, 573.0)">t</text><text xml:space="preserve" font-family="Didot" font-size="106.0" fill="#846049" transform="matrix(1.00, 0.00, -0.00, -1.00, 1192.3, 573.0)">c</text><text xml:space="preserve" font-family="Didot" font-size="106.0" fill="#846049" transform="matrix(1.00, 0.00, -0.00, -1.00, 1242.3, 573.0)">h</text><text xml:space="preserve" font-family="Didot" font-size="106.0" fill="#846049" transform="matrix(1.00, 0.00, -0.00, -1.00, 1307.0, 573.0)">i</text><text xml:space="preserve" font-family="Didot" font-size="106.0" fill="#846049" transform="matrix(1.00, 0.00, -0.00, -1.00, 1338.4, 573.0)">n</text><text xml:space="preserve" font-family="Didot" font-size="106.0" fill="#846049" transform="matrix(1.00, 0.00, -0.00, -1.00, 1403.2, 573.0)">g</text></g></svg>