<?xml version="1.0" encoding="UTF-8" standalone="no"?><svg xmlns="http://www.w3.org/2000/svg" xmlns:xlink="http://www.w3.org/1999/xlink" clip-rule="evenodd" stroke-miterlimit="4.00" viewBox="0 0 1920 1080"><desc>SVG generated by Keynote</desc><defs></defs><g transform="matrix(1.00, 0.00, -0.00, -1.00, 0.0, 1080.0)"><g><clipPath id="clip-65"><path d="M 0.0 1080.0 L 1920.0 1080.0 L 1920.0 0.0 L 0.0 0.0 Z M 0.0 1080.0 "></path></clipPath><g clip-path="url(#clip-65)"><image xlink:href="../../95F339C0-7E9C-479A-A4F3-8E8E57B86552/assets/88831F5924BAFE0A5231EE8BF08C848B.jpeg" width="1365.00" height="767.00" transform="matrix(1.41, 0.00, -0.00, -1.41, 0.0, 1080.0)"></image></g></g><text xml:space="preserve" font-family="Didot" font-size="106.0" fill="#846049" transform="matrix(1.00, 0.00, -0.00, -1.00, 719.0, 953.0)">L</text><text xml:space="preserve" font-family="Didot" font-size="106.0" fill="#846049" transform="matrix(1.00, 0.00, -0.00, -1.00, 791.6, 953.0)">o</text><text xml:space="preserve" font-family="Didot" font-size="106.0" fill="#846049" transform="matrix(1.00, 0.00, -0.00, -1.00, 850.5, 953.0)">c</text><text xml:space="preserve" font-family="Didot" font-size="106.0" fill="#846049" transform="matrix(1.00, 0.00, -0.00, -1.00, 901.5, 953.0)">u</text><text xml:space="preserve" font-family="Didot" font-size="106.0" fill="#846049" transform="matrix(1.00, 0.00, -0.00, -1.00, 964.4, 953.0)">s</text><text xml:space="preserve" font-family="Didot" font-size="106.0" fill="#846049" transform="matrix(1.00, 0.00, -0.00, -1.00, 1009.5, 953.0)">t</text><text xml:space="preserve" font-family="Didot" font-size="106.0" fill="#846049" transform="matrix(1.00, 0.00, -0.00, -1.00, 1044.8, 953.0)">i</text><text xml:space="preserve" font-family="Didot" font-size="106.0" fill="#846049" transform="matrix(1.00, 0.00, -0.00, -1.00, 1076.2, 953.0)">o</text><text xml:space="preserve" font-family="ZapfDingbatsITC" font-size="56.0" fill="#615B47" transform="matrix(1.00, 0.00, -0.00, -1.00, 212.6, 801.6)">✦</text><text xml:space="preserve" font-family="Didot" font-size="56.0" fill="#615B47" transform="matrix(1.00, 0.00, -0.00, -1.00, 257.0, 802.0)"> </text><text xml:space="preserve" font-family="Didot" font-size="56.0" fill="#615B47" transform="matrix(1.00, 0.00, -0.00, -1.00, 272.6, 802.0)">O</text><text xml:space="preserve" font-family="Didot" font-size="56.0" fill="#615B47" transform="matrix(1.00, 0.00, -0.00, -1.00, 319.2, 802.0)">p</text><text xml:space="preserve" font-family="Didot" font-size="56.0" fill="#615B47" transform="matrix(1.00, 0.00, -0.00, -1.00, 352.4, 802.0)">e</text><text xml:space="preserve" font-family="Didot" font-size="56.0" fill="#615B47" transform="matrix(1.00, 0.00, -0.00, -1.00, 380.4, 802.0)">n</text><text xml:space="preserve" font-family="Didot" font-size="56.0" fill="#615B47" transform="matrix(1.00, 0.00, -0.00, -1.00, 414.6, 802.0)"> </text><text xml:space="preserve" font-family="Didot" font-size="56.0" fill="#615B47" transform="matrix(1.00, 0.00, -0.00, -1.00, 430.2, 802.0)">S</text><text xml:space="preserve" font-family="Didot" font-size="56.0" fill="#615B47" transform="matrix(1.00, 0.00, -0.00, -1.00, 467.5, 802.0)">o</text><text xml:space="preserve" font-family="Didot" font-size="56.0" fill="#615B47" transform="matrix(1.00, 0.00, -0.00, -1.00, 498.6, 802.0)">u</text><text xml:space="preserve" font-family="Didot" font-size="56.0" fill="#615B47" transform="matrix(1.00, 0.00, -0.00, -1.00, 531.8, 802.0)">r</text><text xml:space="preserve" font-family="Didot" font-size="56.0" fill="#615B47" transform="matrix(1.00, 0.00, -0.00, -1.00, 554.6, 802.0)">c</text><text xml:space="preserve" font-family="Didot" font-size="56.0" fill="#615B47" transform="matrix(1.00, 0.00, -0.00, -1.00, 581.6, 802.0)">e</text><text xml:space="preserve" font-family="Didot" font-size="56.0" fill="#615B47" transform="matrix(1.00, 0.00, -0.00, -1.00, 609.6, 802.0)"> </text><text xml:space="preserve" font-family="Didot" font-size="56.0" fill="#615B47" transform="matrix(1.00, 0.00, -0.00, -1.00, 625.1, 802.0)">P</text><text xml:space="preserve" font-family="Didot" font-size="56.0" fill="#615B47" transform="matrix(1.00, 0.00, -0.00, -1.00, 661.4, 802.0)">y</text><text xml:space="preserve" font-family="Didot" font-size="56.0" fill="#615B47" transform="matrix(1.00, 0.00, -0.00, -1.00, 688.4, 802.0)">t</text><text xml:space="preserve" font-family="Didot" font-size="56.0" fill="#615B47" transform="matrix(1.00, 0.00, -0.00, -1.00, 707.0, 802.0)">h</text><text xml:space="preserve" font-family="Didot" font-size="56.0" fill="#615B47" transform="matrix(1.00, 0.00, -0.00, -1.00, 741.2, 802.0)">o</text><text xml:space="preserve" font-family="Didot" font-size="56.0" fill="#615B47" transform="matrix(1.00, 0.00, -0.00, -1.00, 772.4, 802.0)">n</text><text xml:space="preserve" font-family="Didot" font-size="56.0" fill="#615B47" transform="matrix(1.00, 0.00, -0.00, -1.00, 806.6, 802.0)"> </text><text xml:space="preserve" font-family="Didot" font-size="56.0" fill="#615B47" transform="matrix(1.00, 0.00, -0.00, -1.00, 822.2, 802.0)">t</text><text xml:space="preserve" font-family="Didot" font-size="56.0" fill="#615B47" transform="matrix(1.00, 0.00, -0.00, -1.00, 840.8, 802.0)">o</text><text xml:space="preserve" font-family="Didot" font-size="56.0" fill="#615B47" transform="matrix(1.00, 0.00, -0.00, -1.00, 871.9, 802.0)">o</text><text xml:space="preserve" font-family="Didot" font-size="56.0" fill="#615B47" transform="matrix(1.00, 0.00, -0.00, -1.00, 903.1, 802.0)">l</text><text xml:space="preserve" font-family="Didot" font-size="56.0" fill="#615B47" transform="matrix(1.00, 0.00, -0.00, -1.00, 919.6, 802.0)"> </text><text xml:space="preserve" font-family="ZapfDingbatsITC" font-size="56.0" fill="#615B47" transform="matrix(1.00, 0.00, -0.00, -1.00, 212.6, 695.8)">✦</text><text xml:space="preserve" font-family="Didot" font-size="56.0" fill="#615B47" transform="matrix(1.00, 0.00, -0.00, -1.00, 257.0, 696.0)"> </text><text xml:space="preserve" font-family="Didot" font-size="56.0" fill="#615B47" transform="matrix(1.00, 0.00, -0.00, -1.00, 272.6, 696.0)">E</text><text xml:space="preserve" font-family="Didot" font-size="56.0" fill="#615B47" transform="matrix(1.00, 0.00, -0.00, -1.00, 312.0, 696.0)">v</text><text xml:space="preserve" font-family="Didot" font-size="56.0" fill="#615B47" transform="matrix(1.00, 0.00, -0.00, -1.00, 338.4, 696.0)">e</text><text xml:space="preserve" font-family="Didot" font-size="56.0" fill="#615B47" transform="matrix(1.00, 0.00, -0.00, -1.00, 366.4, 696.0)">n</text><text xml:space="preserve" font-family="Didot" font-size="56.0" fill="#615B47" transform="matrix(1.00, 0.00, -0.00, -1.00, 400.6, 696.0)">t</text><text xml:space="preserve" font-family="Didot" font-size="56.0" fill="#615B47" transform="matrix(1.00, 0.00, -0.00, -1.00, 419.2, 696.0)"> </text><text xml:space="preserve" font-family="Didot" font-size="56.0" fill="#615B47" transform="matrix(1.00, 0.00, -0.00, -1.00, 434.8, 696.0)">B</text><text xml:space="preserve" font-family="Didot" font-size="56.0" fill="#615B47" transform="matrix(1.00, 0.00, -0.00, -1.00, 472.2, 696.0)">a</text><text xml:space="preserve" font-family="Didot" font-size="56.0" fill="#615B47" transform="matrix(1.00, 0.00, -0.00, -1.00, 499.1, 696.0)">s</text><text xml:space="preserve" font-family="Didot" font-size="56.0" fill="#615B47" transform="matrix(1.00, 0.00, -0.00, -1.00, 522.9, 696.0)">e</text><text xml:space="preserve" font-family="Didot" font-size="56.0" fill="#615B47" transform="matrix(1.00, 0.00, -0.00, -1.00, 550.9, 696.0)">d</text><text xml:space="preserve" font-family="Didot" font-size="56.0" fill="#615B47" transform="matrix(1.00, 0.00, -0.00, -1.00, 584.2, 696.0)"> </text><text xml:space="preserve" font-family="ZapfDingbatsITC" font-size="56.0" fill="#615B47" transform="matrix(1.00, 0.00, -0.00, -1.00, 212.6, 590.0)">✦</text><text xml:space="preserve" font-family="Didot" font-size="56.0" fill="#615B47" transform="matrix(1.00, 0.00, -0.00, -1.00, 257.0, 590.0)"> </text><text xml:space="preserve" font-family="Didot" font-size="56.0" fill="#615B47" transform="matrix(1.00, 0.00, -0.00, -1.00, 272.6, 590.0)">D</text><text xml:space="preserve" font-family="Didot" font-size="56.0" fill="#615B47" transform="matrix(1.00, 0.00, -0.00, -1.00, 318.2, 590.0)">e</text><text xml:space="preserve" font-family="Didot" font-size="56.0" fill="#615B47" transform="matrix(1.00, 0.00, -0.00, -1.00, 346.2, 590.0)">ﬁ</text><text xml:space="preserve" font-family="Didot" font-size="56.0" fill="#615B47" transform="matrix(1.00, 0.00, -0.00, -1.00, 379.4, 590.0)">n</text><text xml:space="preserve" font-family="Didot" font-size="56.0" fill="#615B47" transform="matrix(1.00, 0.00, -0.00, -1.00, 413.6, 590.0)">e</text><text xml:space="preserve" font-family="Didot" font-size="56.0" fill="#615B47" transform="matrix(1.00, 0.00, -0.00, -1.00, 441.6, 590.0)"> </text><text xml:space="preserve" font-family="Didot" font-size="56.0" fill="#615B47" transform="matrix(1.00, 0.00, -0.00, -1.00, 457.2, 590.0)">U</text><text xml:space="preserve" font-family="Didot" font-size="56.0" fill="#615B47" transform="matrix(1.00, 0.00, -0.00, -1.00, 499.7, 590.0)">s</text><text xml:space="preserve" font-family="Didot" font-size="56.0" fill="#615B47" transform="matrix(1.00, 0.00, -0.00, -1.00, 523.6, 590.0)">e</text><text xml:space="preserve" font-family="Didot" font-size="56.0" fill="#615B47" transform="matrix(1.00, 0.00, -0.00, -1.00, 551.6, 590.0)">r</text><text xml:space="preserve" font-family="Didot" font-size="56.0" fill="#615B47" transform="matrix(1.00, 0.00, -0.00, -1.00, 574.4, 590.0)"> </text><text xml:space="preserve" font-family="Didot" font-size="56.0" fill="#615B47" transform="matrix(1.00, 0.00, -0.00, -1.00, 589.9, 590.0)">B</text><text xml:space="preserve" font-family="Didot" font-size="56.0" fill="#615B47" transform="matrix(1.00, 0.00, -0.00, -1.00, 627.3, 590.0)">e</text><text xml:space="preserve" font-family="Didot" font-size="56.0" fill="#615B47" transform="matrix(1.00, 0.00, -0.00, -1.00, 655.3, 590.0)">h</text><text xml:space="preserve" font-family="Didot" font-size="56.0" fill="#615B47" transform="matrix(1.00, 0.00, -0.00, -1.00, 689.5, 590.0)">a</text><text xml:space="preserve" font-family="Didot" font-size="56.0" fill="#615B47" transform="matrix(1.00, 0.00, -0.00, -1.00, 715.9, 590.0)">v</text><text xml:space="preserve" font-family="Didot" font-size="56.0" fill="#615B47" transform="matrix(1.00, 0.00, -0.00, -1.00, 742.8, 590.0)">i</text><text xml:space="preserve" font-family="Didot" font-size="56.0" fill="#615B47" transform="matrix(1.00, 0.00, -0.00, -1.00, 759.4, 590.0)">o</text><text xml:space="preserve" font-family="Didot" font-size="56.0" fill="#615B47" transform="matrix(1.00, 0.00, -0.00, -1.00, 790.5, 590.0)">r</text><text xml:space="preserve" font-family="Didot" font-size="56.0" fill="#615B47" transform="matrix(1.00, 0.00, -0.00, -1.00, 813.3, 590.0)"> </text><text xml:space="preserve" font-family="Didot" font-size="56.0" fill="#615B47" transform="matrix(1.00, 0.00, -0.00, -1.00, 828.9, 590.0)">i</text><text xml:space="preserve" font-family="Didot" font-size="56.0" fill="#615B47" transform="matrix(1.00, 0.00, -0.00, -1.00, 845.4, 590.0)">n</text><text xml:space="preserve" font-family="Didot" font-size="56.0" fill="#615B47" transform="matrix(1.00, 0.00, -0.00, -1.00, 879.7, 590.0)"> </text><text xml:space="preserve" font-family="Didot" font-size="56.0" fill="#615B47" transform="matrix(1.00, 0.00, -0.00, -1.00, 895.2, 590.0)">C</text><text xml:space="preserve" font-family="Didot" font-size="56.0" fill="#615B47" transform="matrix(1.00, 0.00, -0.00, -1.00, 935.7, 590.0)">o</text><text xml:space="preserve" font-family="Didot" font-size="56.0" fill="#615B47" transform="matrix(1.00, 0.00, -0.00, -1.00, 966.8, 590.0)">d</text><text xml:space="preserve" font-family="Didot" font-size="56.0" fill="#615B47" transform="matrix(1.00, 0.00, -0.00, -1.00, 1000.0, 590.0)">e</text><text xml:space="preserve" font-family="Didot" font-size="56.0" fill="#615B47" transform="matrix(1.00, 0.00, -0.00, -1.00, 1028.0, 590.0)"> </text><text xml:space="preserve" font-family="ZapfDingbatsITC" font-size="56.0" fill="#615B47" transform="matrix(1.00, 0.00, -0.00, -1.00, 212.6, 484.2)">✦</text><text xml:space="preserve" font-family="Didot" font-size="56.0" fill="#615B47" transform="matrix(1.00, 0.00, -0.00, -1.00, 257.0, 484.0)"> </text><text xml:space="preserve" font-family="Didot" font-size="56.0" fill="#615B47" transform="matrix(1.00, 0.00, -0.00, -1.00, 272.6, 484.0)">D</text><text xml:space="preserve" font-family="Didot" font-size="56.0" fill="#615B47" transform="matrix(1.00, 0.00, -0.00, -1.00, 318.2, 484.0)">i</text><text xml:space="preserve" font-family="Didot" font-size="56.0" fill="#615B47" transform="matrix(1.00, 0.00, -0.00, -1.00, 334.8, 484.0)">s</text><text xml:space="preserve" font-family="Didot" font-size="56.0" fill="#615B47" transform="matrix(1.00, 0.00, -0.00, -1.00, 358.6, 484.0)">t</text><text xml:space="preserve" font-family="Didot" font-size="56.0" fill="#615B47" transform="matrix(1.00, 0.00, -0.00, -1.00, 377.3, 484.0)">r</text><text xml:space="preserve" font-family="Didot" font-size="56.0" fill="#615B47" transform="matrix(1.00, 0.00, -0.00, -1.00, 400.1, 484.0)">i</text><text xml:space="preserve" font-family="Didot" font-size="56.0" fill="#615B47" transform="matrix(1.00, 0.00, -0.00, -1.00, 416.7, 484.0)">b</text><text xml:space="preserve" font-family="Didot" font-size="56.0" fill="#615B47" transform="matrix(1.00, 0.00, -0.00, -1.00, 449.9, 484.0)">u</text><text xml:space="preserve" font-family="Didot" font-size="56.0" fill="#615B47" transform="matrix(1.00, 0.00, -0.00, -1.00, 483.1, 484.0)">t</text><text xml:space="preserve" font-family="Didot" font-size="56.0" fill="#615B47" transform="matrix(1.00, 0.00, -0.00, -1.00, 501.7, 484.0)">e</text><text xml:space="preserve" font-family="Didot" font-size="56.0" fill="#615B47" transform="matrix(1.00, 0.00, -0.00, -1.00, 529.7, 484.0)">d</text><text xml:space="preserve" font-family="Didot" font-size="56.0" fill="#615B47" transform="matrix(1.00, 0.00, -0.00, -1.00, 562.9, 484.0)"> </text><text xml:space="preserve" font-family="Didot" font-size="56.0" fill="#615B47" transform="matrix(1.00, 0.00, -0.00, -1.00, 578.5, 484.0)">&amp;</text><text xml:space="preserve" font-family="Didot" font-size="56.0" fill="#615B47" transform="matrix(1.00, 0.00, -0.00, -1.00, 622.1, 484.0)"> </text><text xml:space="preserve" font-family="Didot" font-size="56.0" fill="#615B47" transform="matrix(1.00, 0.00, -0.00, -1.00, 637.6, 484.0)">S</text><text xml:space="preserve" font-family="Didot" font-size="56.0" fill="#615B47" transform="matrix(1.00, 0.00, -0.00, -1.00, 675.0, 484.0)">c</text><text xml:space="preserve" font-family="Didot" font-size="56.0" fill="#615B47" transform="matrix(1.00, 0.00, -0.00, -1.00, 701.9, 484.0)">a</text><text xml:space="preserve" font-family="Didot" font-size="56.0" fill="#615B47" transform="matrix(1.00, 0.00, -0.00, -1.00, 728.9, 484.0)">l</text><text xml:space="preserve" font-family="Didot" font-size="56.0" fill="#615B47" transform="matrix(1.00, 0.00, -0.00, -1.00, 745.4, 484.0)">a</text><text xml:space="preserve" font-family="Didot" font-size="56.0" fill="#615B47" transform="matrix(1.00, 0.00, -0.00, -1.00, 772.4, 484.0)">b</text><text xml:space="preserve" font-family="Didot" font-size="56.0" fill="#615B47" transform="matrix(1.00, 0.00, -0.00, -1.00, 805.6, 484.0)">l</text><text xml:space="preserve" font-family="Didot" font-size="56.0" fill="#615B47" transform="matrix(1.00, 0.00, -0.00, -1.00, 822.2, 484.0)">e</text><text xml:space="preserve" font-family="Didot" font-size="56.0" fill="#615B47" transform="matrix(1.00, 0.00, -0.00, -1.00, 850.2, 484.0)"> </text><text xml:space="preserve" font-family="ZapfDingbatsITC" font-size="56.0" fill="#615B47" transform="matrix(1.00, 0.00, -0.00, -1.00, 212.6, 378.3)">✦</text><text xml:space="preserve" font-family="Didot" font-size="56.0" fill="#615B47" transform="matrix(1.00, 0.00, -0.00, -1.00, 257.0, 378.0)"> </text><text xml:space="preserve" font-family="Didot" font-size="56.0" fill="#615B47" transform="matrix(1.00, 0.00, -0.00, -1.00, 267.5, 378.0)">W</text><text xml:space="preserve" font-family="Didot" font-size="56.0" fill="#615B47" transform="matrix(1.00, 0.00, -0.00, -1.00, 322.1, 378.0)">e</text><text xml:space="preserve" font-family="Didot" font-size="56.0" fill="#615B47" transform="matrix(1.00, 0.00, -0.00, -1.00, 350.1, 378.0)">b</text><text xml:space="preserve" font-family="Didot" font-size="56.0" fill="#615B47" transform="matrix(1.00, 0.00, -0.00, -1.00, 383.3, 378.0)"> </text><text xml:space="preserve" font-family="Didot" font-size="56.0" fill="#615B47" transform="matrix(1.00, 0.00, -0.00, -1.00, 398.8, 378.0)">I</text><text xml:space="preserve" font-family="Didot" font-size="56.0" fill="#615B47" transform="matrix(1.00, 0.00, -0.00, -1.00, 420.6, 378.0)">n</text><text xml:space="preserve" font-family="Didot" font-size="56.0" fill="#615B47" transform="matrix(1.00, 0.00, -0.00, -1.00, 454.8, 378.0)">t</text><text xml:space="preserve" font-family="Didot" font-size="56.0" fill="#615B47" transform="matrix(1.00, 0.00, -0.00, -1.00, 473.4, 378.0)">e</text><text xml:space="preserve" font-family="Didot" font-size="56.0" fill="#615B47" transform="matrix(1.00, 0.00, -0.00, -1.00, 501.4, 378.0)">r</text><text xml:space="preserve" font-family="Didot" font-size="56.0" fill="#615B47" transform="matrix(1.00, 0.00, -0.00, -1.00, 524.2, 378.0)">f</text><text xml:space="preserve" font-family="Didot" font-size="56.0" fill="#615B47" transform="matrix(1.00, 0.00, -0.00, -1.00, 542.9, 378.0)">a</text><text xml:space="preserve" font-family="Didot" font-size="56.0" fill="#615B47" transform="matrix(1.00, 0.00, -0.00, -1.00, 569.8, 378.0)">c</text><text xml:space="preserve" font-family="Didot" font-size="56.0" fill="#615B47" transform="matrix(1.00, 0.00, -0.00, -1.00, 596.8, 378.0)">e</text><text xml:space="preserve" font-family="Didot" font-size="56.0" fill="#615B47" transform="matrix(1.00, 0.00, -0.00, -1.00, 624.8, 378.0)"> </text><text xml:space="preserve" font-family="Didot" font-size="56.0" fill="#615B47" transform="matrix(1.00, 0.00, -0.00, -1.00, 640.3, 378.0)">f</text><text xml:space="preserve" font-family="Didot" font-size="56.0" fill="#615B47" transform="matrix(1.00, 0.00, -0.00, -1.00, 658.4, 378.0)">o</text><text xml:space="preserve" font-family="Didot" font-size="56.0" fill="#615B47" transform="matrix(1.00, 0.00, -0.00, -1.00, 689.5, 378.0)">r</text><text xml:space="preserve" font-family="Didot" font-size="56.0" fill="#615B47" transform="matrix(1.00, 0.00, -0.00, -1.00, 712.3, 378.0)"> </text><text xml:space="preserve" font-family="Didot" font-size="56.0" fill="#615B47" transform="matrix(1.00, 0.00, -0.00, -1.00, 727.9, 378.0)">s</text><text xml:space="preserve" font-family="Didot" font-size="56.0" fill="#615B47" transform="matrix(1.00, 0.00, -0.00, -1.00, 751.8, 378.0)">t</text><text xml:space="preserve" font-family="Didot" font-size="56.0" fill="#615B47" transform="matrix(1.00, 0.00, -0.00, -1.00, 770.4, 378.0)">a</text><text xml:space="preserve" font-family="Didot" font-size="56.0" fill="#615B47" transform="matrix(1.00, 0.00, -0.00, -1.00, 797.3, 378.0)">t</text><text xml:space="preserve" font-family="Didot" font-size="56.0" fill="#615B47" transform="matrix(1.00, 0.00, -0.00, -1.00, 816.0, 378.0)">i</text><text xml:space="preserve" font-family="Didot" font-size="56.0" fill="#615B47" transform="matrix(1.00, 0.00, -0.00, -1.00, 832.6, 378.0)">s</text><text xml:space="preserve" font-family="Didot" font-size="56.0" fill="#615B47" transform="matrix(1.00, 0.00, -0.00, -1.00, 856.4, 378.0)">t</text><text xml:space="preserve" font-family="Didot" font-size="56.0" fill="#615B47" transform="matrix(1.00, 0.00, -0.00, -1.00, 875.1, 378.0)">i</text><text xml:space="preserve" font-family="Didot" font-size="56.0" fill="#615B47" transform="matrix(1.00, 0.00, -0.00, -1.00, 891.6, 378.0)">c</text><text xml:space="preserve" font-family="Didot" font-size="56.0" fill="#615B47" transform="matrix(1.00, 0.00, -0.00, -1.00, 918.6, 378.0)">s</text><text xml:space="preserve" font-family="Didot-Bold" font-weight="bold" font-size="24.0" fill="#51563E" transform="matrix(1.00, 0.00, -0.00, -1.00, 946.0, 11.0)">1</text><text xml:space="preserve" font-family="Didot-Bold" font-weight="bold" font-size="24.0" fill="#51563E" transform="matrix(1.00, 0.00, -0.00, -1.00, 959.3, 11.0)">2</text></g></svg>