<?xml version="1.0" encoding="UTF-8" standalone="no"?><svg xmlns="http://www.w3.org/2000/svg" xmlns:xlink="http://www.w3.org/1999/xlink" clip-rule="evenodd" stroke-miterlimit="4.00" viewBox="0 0 1920 1080"><desc>SVG generated by Keynote</desc><defs></defs><g transform="matrix(1.00, 0.00, -0.00, -1.00, 0.0, 1080.0)"><g><clipPath id="clip-8"><path d="M 0.0 1080.0 L 1920.0 1080.0 L 1920.0 0.0 L 0.0 0.0 Z M 0.0 1080.0 "></path></clipPath><g clip-path="url(#clip-8)"><image xlink:href="../../95F339C0-7E9C-479A-A4F3-8E8E57B86552/assets/88831F5924BAFE0A5231EE8BF08C848B.jpeg" width="1365.00" height="767.00" transform="matrix(1.41, 0.00, -0.00, -1.41, 0.0, 1080.0)"></image></g></g><g><clipPath id="clip-9"><path d="M 62.0 924.7 L 99.2 924.7 L 99.2 887.5 L 62.0 887.5 Z M 62.0 924.7 "></path></clipPath><g clip-path="url(#clip-9)"><g><clipPath id="clip-10"><path d="M 62.8 888.2 L 98.1 888.2 L 98.1 923.5 L 62.8 923.5 Z M 62.8 888.2 "></path></clipPath><g clip-path="url(#clip-10)"><path d="M 98.1 906.0 C 98.1 905.7 97.7 905.5 96.9 905.5 C 94.7 905.5 92.9 905.2 91.5 904.6 C 89.6 903.8 87.8 902.3 86.1 900.2 C 85.6 899.6 84.5 898.2 82.9 895.9 C 81.7 894.1 80.6 892.8 79.7 891.9 C 78.5 890.6 77.2 889.7 76.1 889.1 C 74.8 888.5 73.3 888.2 71.7 888.2 C 69.3 888.2 67.3 888.9 65.7 890.3 C 64.2 891.7 63.4 893.4 63.4 895.4 C 63.4 897.0 63.9 898.3 64.9 899.4 C 66.0 900.4 67.3 901.0 68.8 901.0 C 69.6 901.0 70.3 900.7 71.0 900.0 C 71.6 899.4 72.0 898.7 72.0 897.8 C 72.0 896.9 71.7 896.2 71.3 895.7 C 70.9 895.1 70.3 894.9 69.6 894.9 C 69.2 894.9 68.7 895.2 68.3 895.9 C 67.8 896.5 67.4 896.8 67.2 896.8 C 66.8 896.8 66.5 896.6 66.2 896.2 C 65.9 895.8 65.7 895.3 65.7 894.7 C 65.7 893.3 66.1 892.3 66.8 891.5 C 67.5 890.7 68.5 890.3 69.7 890.3 C 70.8 890.3 71.8 890.9 72.8 892.0 C 73.7 893.2 74.7 894.3 75.6 895.5 C 76.9 897.1 78.9 898.8 81.4 900.5 C 83.2 901.8 86.0 903.6 89.9 905.9 L 90.2 906.2 C 90.1 906.3 90.0 906.4 89.9 906.5 C 86.4 908.4 84.1 909.6 83.2 910.1 C 81.1 911.3 79.5 912.3 78.5 913.2 C 76.6 914.8 74.9 916.6 73.5 918.5 C 72.1 920.4 70.9 921.4 69.7 921.4 C 68.6 921.4 67.6 920.9 66.6 920.0 C 65.7 919.1 65.2 918.0 65.2 916.9 C 65.2 916.4 65.4 916.0 65.6 915.6 C 65.8 915.2 66.0 914.9 66.2 914.9 C 66.4 914.9 66.8 915.2 67.5 915.7 C 68.2 916.2 68.7 916.5 69.0 916.5 C 69.6 916.5 70.1 916.2 70.5 915.7 C 71.0 915.1 71.2 914.5 71.2 913.7 C 71.2 912.8 70.8 911.9 70.1 911.2 C 69.5 910.5 68.7 910.1 67.8 910.1 C 66.3 910.1 65.1 910.6 64.2 911.8 C 63.3 912.9 62.8 914.4 62.8 916.3 C 62.8 918.2 63.6 919.9 65.2 921.3 C 66.7 922.8 68.6 923.5 70.8 923.5 C 74.0 923.5 76.9 922.2 79.5 919.6 C 80.2 918.9 81.2 917.6 82.7 915.7 C 84.1 913.8 85.4 912.4 86.4 911.3 C 89.1 908.6 92.7 907.0 97.2 906.6 C 97.8 906.5 98.1 906.3 98.1 906.0 " fill="#A1733C"></path></g></g></g></g><text xml:space="preserve" font-family="Didot-Bold" font-weight="bold" font-size="70.0" fill="#615B47" transform="matrix(1.00, 0.00, -0.00, -1.00, 108.0, 882.0)">M</text><text xml:space="preserve" font-family="Didot-Bold" font-weight="bold" font-size="70.0" fill="#615B47" transform="matrix(1.00, 0.00, -0.00, -1.00, 172.8, 882.0)">i</text><text xml:space="preserve" font-family="Didot-Bold" font-weight="bold" font-size="70.0" fill="#615B47" transform="matrix(1.00, 0.00, -0.00, -1.00, 194.9, 882.0)">c</text><text xml:space="preserve" font-family="Didot-Bold" font-weight="bold" font-size="70.0" fill="#615B47" transform="matrix(1.00, 0.00, -0.00, -1.00, 228.5, 882.0)">r</text><text xml:space="preserve" font-family="Didot-Bold" font-weight="bold" font-size="70.0" fill="#615B47" transform="matrix(1.00, 0.00, -0.00, -1.00, 259.6, 882.0)">o</text><text xml:space="preserve" font-family="Didot-Bold" font-weight="bold" font-size="70.0" fill="#615B47" transform="matrix(1.00, 0.00, -0.00, -1.00, 298.5, 882.0)">s</text><text xml:space="preserve" font-family="Didot-Bold" font-weight="bold" font-size="70.0" fill="#615B47" transform="matrix(1.00, 0.00, -0.00, -1.00, 328.4, 882.0)">o</text><text xml:space="preserve" font-family="Didot-Bold" font-weight="bold" font-size="70.0" fill="#615B47" transform="matrix(1.00, 0.00, -0.00, -1.00, 367.3, 882.0)">f</text><text xml:space="preserve" font-family="Didot-Bold" font-weight="bold" font-size="70.0" fill="#615B47" transform="matrix(1.00, 0.00, -0.00, -1.00, 391.9, 882.0)">t</text><text xml:space="preserve" font-family="Didot-Bold" font-weight="bold" font-size="70.0" fill="#615B47" transform="matrix(1.00, 0.00, -0.00, -1.00, 417.8, 882.0)"> </text><text xml:space="preserve" font-family="Didot-Bold" font-weight="bold" font-size="70.0" fill="#615B47" transform="matrix(1.00, 0.00, -0.00, -1.00, 437.3, 882.0)">B</text><text xml:space="preserve" font-family="Didot-Bold" font-weight="bold" font-size="70.0" fill="#615B47" transform="matrix(1.00, 0.00, -0.00, -1.00, 485.2, 882.0)">i</text><text xml:space="preserve" font-family="Didot-Bold" font-weight="bold" font-size="70.0" fill="#615B47" transform="matrix(1.00, 0.00, -0.00, -1.00, 507.3, 882.0)">n</text><text xml:space="preserve" font-family="Didot-Bold" font-weight="bold" font-size="70.0" fill="#615B47" transform="matrix(1.00, 0.00, -0.00, -1.00, 551.4, 882.0)">g</text><text xml:space="preserve" font-family="Didot-Bold" font-weight="bold" font-size="70.0" fill="#615B47" transform="matrix(1.00, 0.00, -0.00, -1.00, 589.0, 882.0)"> </text><text xml:space="preserve" font-family="Didot-Bold" font-weight="bold" font-size="70.0" fill="#615B47" transform="matrix(1.00, 0.00, -0.00, -1.00, 608.4, 882.0)">f</text><text xml:space="preserve" font-family="Didot-Bold" font-weight="bold" font-size="70.0" fill="#615B47" transform="matrix(1.00, 0.00, -0.00, -1.00, 632.4, 882.0)">o</text><text xml:space="preserve" font-family="Didot-Bold" font-weight="bold" font-size="70.0" fill="#615B47" transform="matrix(1.00, 0.00, -0.00, -1.00, 671.3, 882.0)">u</text><text xml:space="preserve" font-family="Didot-Bold" font-weight="bold" font-size="70.0" fill="#615B47" transform="matrix(1.00, 0.00, -0.00, -1.00, 714.1, 882.0)">n</text><text xml:space="preserve" font-family="Didot-Bold" font-weight="bold" font-size="70.0" fill="#615B47" transform="matrix(1.00, 0.00, -0.00, -1.00, 758.2, 882.0)">d</text><text xml:space="preserve" font-family="Didot-Bold" font-weight="bold" font-size="70.0" fill="#615B47" transform="matrix(1.00, 0.00, -0.00, -1.00, 799.7, 882.0)"> </text><text xml:space="preserve" font-family="Didot-Bold" font-weight="bold" font-size="70.0" fill="#615B47" transform="matrix(1.00, 0.00, -0.00, -1.00, 819.1, 882.0)">t</text><text xml:space="preserve" font-family="Didot-Bold" font-weight="bold" font-size="70.0" fill="#615B47" transform="matrix(1.00, 0.00, -0.00, -1.00, 845.0, 882.0)">h</text><text xml:space="preserve" font-family="Didot-Bold" font-weight="bold" font-size="70.0" fill="#615B47" transform="matrix(1.00, 0.00, -0.00, -1.00, 889.1, 882.0)">a</text><text xml:space="preserve" font-family="Didot-Bold" font-weight="bold" font-size="70.0" fill="#615B47" transform="matrix(1.00, 0.00, -0.00, -1.00, 925.5, 882.0)">t</text><text xml:space="preserve" font-family="Didot-Bold" font-weight="bold" font-size="70.0" fill="#615B47" transform="matrix(1.00, 0.00, -0.00, -1.00, 951.4, 882.0)"> </text><text xml:space="preserve" font-family="Didot-Bold" font-weight="bold" font-size="70.0" fill="#615B47" transform="matrix(1.00, 0.00, -0.00, -1.00, 970.8, 882.0)">i</text><text xml:space="preserve" font-family="Didot-Bold" font-weight="bold" font-size="70.0" fill="#615B47" transform="matrix(1.00, 0.00, -0.00, -1.00, 992.9, 882.0)">n</text><text xml:space="preserve" font-family="Didot-Bold" font-weight="bold" font-size="70.0" fill="#615B47" transform="matrix(1.00, 0.00, -0.00, -1.00, 1037.0, 882.0)">c</text><text xml:space="preserve" font-family="Didot-Bold" font-weight="bold" font-size="70.0" fill="#615B47" transform="matrix(1.00, 0.00, -0.00, -1.00, 1070.6, 882.0)">r</text><text xml:space="preserve" font-family="Didot-Bold" font-weight="bold" font-size="70.0" fill="#615B47" transform="matrix(1.00, 0.00, -0.00, -1.00, 1101.7, 882.0)">e</text><text xml:space="preserve" font-family="Didot-Bold" font-weight="bold" font-size="70.0" fill="#615B47" transform="matrix(1.00, 0.00, -0.00, -1.00, 1136.7, 882.0)">a</text><text xml:space="preserve" font-family="Didot-Bold" font-weight="bold" font-size="70.0" fill="#615B47" transform="matrix(1.00, 0.00, -0.00, -1.00, 1173.0, 882.0)">s</text><text xml:space="preserve" font-family="Didot-Bold" font-weight="bold" font-size="70.0" fill="#615B47" transform="matrix(1.00, 0.00, -0.00, -1.00, 1202.9, 882.0)">i</text><text xml:space="preserve" font-family="Didot-Bold" font-weight="bold" font-size="70.0" fill="#615B47" transform="matrix(1.00, 0.00, -0.00, -1.00, 1224.9, 882.0)">n</text><text xml:space="preserve" font-family="Didot-Bold" font-weight="bold" font-size="70.0" fill="#615B47" transform="matrix(1.00, 0.00, -0.00, -1.00, 1269.0, 882.0)">g</text><text xml:space="preserve" font-family="Didot-Bold" font-weight="bold" font-size="70.0" fill="#615B47" transform="matrix(1.00, 0.00, -0.00, -1.00, 1306.6, 882.0)"> </text><text xml:space="preserve" font-family="Didot-Bold" font-weight="bold" font-size="70.0" fill="#615B47" transform="matrix(1.00, 0.00, -0.00, -1.00, 1326.1, 882.0)">p</text><text xml:space="preserve" font-family="Didot-Bold" font-weight="bold" font-size="70.0" fill="#615B47" transform="matrix(1.00, 0.00, -0.00, -1.00, 1367.6, 882.0)">a</text><text xml:space="preserve" font-family="Didot-Bold" font-weight="bold" font-size="70.0" fill="#615B47" transform="matrix(1.00, 0.00, -0.00, -1.00, 1403.9, 882.0)">g</text><text xml:space="preserve" font-family="Didot-Bold" font-weight="bold" font-size="70.0" fill="#615B47" transform="matrix(1.00, 0.00, -0.00, -1.00, 1441.5, 882.0)">e</text><text xml:space="preserve" font-family="Didot-Bold" font-weight="bold" font-size="70.0" fill="#615B47" transform="matrix(1.00, 0.00, -0.00, -1.00, 1476.5, 882.0)"> </text><text xml:space="preserve" font-family="Didot-Bold" font-weight="bold" font-size="70.0" fill="#615B47" transform="matrix(1.00, 0.00, -0.00, -1.00, 1496.0, 882.0)">l</text><text xml:space="preserve" font-family="Didot-Bold" font-weight="bold" font-size="70.0" fill="#615B47" transform="matrix(1.00, 0.00, -0.00, -1.00, 1518.0, 882.0)">o</text><text xml:space="preserve" font-family="Didot-Bold" font-weight="bold" font-size="70.0" fill="#615B47" transform="matrix(1.00, 0.00, -0.00, -1.00, 1556.9, 882.0)">a</text><text xml:space="preserve" font-family="Didot-Bold" font-weight="bold" font-size="70.0" fill="#615B47" transform="matrix(1.00, 0.00, -0.00, -1.00, 1593.3, 882.0)">d</text><text xml:space="preserve" font-family="Didot-Bold" font-weight="bold" font-size="70.0" fill="#615B47" transform="matrix(1.00, 0.00, -0.00, -1.00, 1634.8, 882.0)"> </text><text xml:space="preserve" font-family="Didot-Bold" font-weight="bold" font-size="70.0" fill="#615B47" transform="matrix(1.00, 0.00, -0.00, -1.00, 1654.2, 882.0)">t</text><text xml:space="preserve" font-family="Didot-Bold" font-weight="bold" font-size="70.0" fill="#615B47" transform="matrix(1.00, 0.00, -0.00, -1.00, 1680.1, 882.0)">i</text><text xml:space="preserve" font-family="Didot-Bold" font-weight="bold" font-size="70.0" fill="#615B47" transform="matrix(1.00, 0.00, -0.00, -1.00, 1702.2, 882.0)">m</text><text xml:space="preserve" font-family="Didot-Bold" font-weight="bold" font-size="70.0" fill="#615B47" transform="matrix(1.00, 0.00, -0.00, -1.00, 1764.4, 882.0)">e</text><text xml:space="preserve" font-family="Didot-Bold" font-weight="bold" font-size="70.0" fill="#615B47" transform="matrix(1.00, 0.00, -0.00, -1.00, 1799.4, 882.0)"> </text><text xml:space="preserve" font-family="Didot-Bold" font-weight="bold" font-size="70.0" fill="#615B47" transform="matrix(1.00, 0.00, -0.00, -1.00, 108.0, 791.0)">b</text><text xml:space="preserve" font-family="Didot-Bold" font-weight="bold" font-size="70.0" fill="#615B47" transform="matrix(1.00, 0.00, -0.00, -1.00, 148.5, 791.0)">y</text><text xml:space="preserve" font-family="Didot-Bold" font-weight="bold" font-size="70.0" fill="#615B47" transform="matrix(1.00, 0.00, -0.00, -1.00, 182.1, 791.0)"> </text><text xml:space="preserve" font-family="Didot-Bold" font-weight="bold" font-size="70.0" fill="#615B47" transform="matrix(1.00, 0.00, -0.00, -1.00, 201.6, 791.0)">a</text><text xml:space="preserve" font-family="Didot-Bold" font-weight="bold" font-size="70.0" fill="#615B47" transform="matrix(1.00, 0.00, -0.00, -1.00, 237.9, 791.0)"> </text><text xml:space="preserve" font-family="Didot-Bold" font-weight="bold" font-size="70.0" fill="#615B47" transform="matrix(1.00, 0.00, -0.00, -1.00, 257.4, 791.0)">m</text><text xml:space="preserve" font-family="Didot-Bold" font-weight="bold" font-size="70.0" fill="#615B47" transform="matrix(1.00, 0.00, -0.00, -1.00, 319.6, 791.0)">e</text><text xml:space="preserve" font-family="Didot-Bold" font-weight="bold" font-size="70.0" fill="#615B47" transform="matrix(1.00, 0.00, -0.00, -1.00, 354.6, 791.0)">r</text><text xml:space="preserve" font-family="Didot-Bold" font-weight="bold" font-size="70.0" fill="#615B47" transform="matrix(1.00, 0.00, -0.00, -1.00, 385.7, 791.0)">e</text><text xml:space="preserve" font-family="Didot-Bold" font-weight="bold" font-size="70.0" fill="#615B47" transform="matrix(1.00, 0.00, -0.00, -1.00, 420.7, 791.0)"> </text><text xml:space="preserve" font-family="Didot-Bold" font-weight="bold" font-size="70.0" fill="#615B47" transform="matrix(1.00, 0.00, -0.00, -1.00, 440.1, 791.0)">1</text><text xml:space="preserve" font-family="Didot-Bold" font-weight="bold" font-size="70.0" fill="#615B47" transform="matrix(1.00, 0.00, -0.00, -1.00, 479.1, 791.0)">-</text><text xml:space="preserve" font-family="Didot-Bold" font-weight="bold" font-size="70.0" fill="#615B47" transform="matrix(1.00, 0.00, -0.00, -1.00, 505.0, 791.0)">2</text><text xml:space="preserve" font-family="Didot-Bold" font-weight="bold" font-size="70.0" fill="#615B47" transform="matrix(1.00, 0.00, -0.00, -1.00, 543.9, 791.0)"> </text><text xml:space="preserve" font-family="Didot-Bold" font-weight="bold" font-size="70.0" fill="#615B47" transform="matrix(1.00, 0.00, -0.00, -1.00, 563.3, 791.0)">s</text><text xml:space="preserve" font-family="Didot-Bold" font-weight="bold" font-size="70.0" fill="#615B47" transform="matrix(1.00, 0.00, -0.00, -1.00, 593.2, 791.0)">e</text><text xml:space="preserve" font-family="Didot-Bold" font-weight="bold" font-size="70.0" fill="#615B47" transform="matrix(1.00, 0.00, -0.00, -1.00, 628.2, 791.0)">c</text><text xml:space="preserve" font-family="Didot-Bold" font-weight="bold" font-size="70.0" fill="#615B47" transform="matrix(1.00, 0.00, -0.00, -1.00, 661.8, 791.0)">o</text><text xml:space="preserve" font-family="Didot-Bold" font-weight="bold" font-size="70.0" fill="#615B47" transform="matrix(1.00, 0.00, -0.00, -1.00, 700.8, 791.0)">n</text><text xml:space="preserve" font-family="Didot-Bold" font-weight="bold" font-size="70.0" fill="#615B47" transform="matrix(1.00, 0.00, -0.00, -1.00, 744.9, 791.0)">d</text><text xml:space="preserve" font-family="Didot-Bold" font-weight="bold" font-size="70.0" fill="#615B47" transform="matrix(1.00, 0.00, -0.00, -1.00, 786.4, 791.0)">s</text><text xml:space="preserve" font-family="Didot-Bold" font-weight="bold" font-size="70.0" fill="#615B47" transform="matrix(1.00, 0.00, -0.00, -1.00, 816.2, 791.0)"> </text><text xml:space="preserve" font-family="Didot-Bold" font-weight="bold" font-size="70.0" fill="#615B47" transform="matrix(1.00, 0.00, -0.00, -1.00, 835.6, 791.0)">h</text><text xml:space="preserve" font-family="Didot-Bold" font-weight="bold" font-size="70.0" fill="#615B47" transform="matrix(1.00, 0.00, -0.00, -1.00, 879.8, 791.0)">a</text><text xml:space="preserve" font-family="Didot-Bold" font-weight="bold" font-size="70.0" fill="#615B47" transform="matrix(1.00, 0.00, -0.00, -1.00, 916.1, 791.0)">d</text><text xml:space="preserve" font-family="Didot-Bold" font-weight="bold" font-size="70.0" fill="#615B47" transform="matrix(1.00, 0.00, -0.00, -1.00, 957.6, 791.0)"> </text><text xml:space="preserve" font-family="Didot-Bold" font-weight="bold" font-size="70.0" fill="#615B47" transform="matrix(1.00, 0.00, -0.00, -1.00, 977.1, 791.0)">a</text><text xml:space="preserve" font-family="Didot-Bold" font-weight="bold" font-size="70.0" fill="#615B47" transform="matrix(1.00, 0.00, -0.00, -1.00, 1013.4, 791.0)"> </text><text xml:space="preserve" font-family="Didot-Bold" font-weight="bold" font-size="70.0" fill="#615B47" transform="matrix(1.00, 0.00, -0.00, -1.00, 1032.8, 791.0)">d</text><text xml:space="preserve" font-family="Didot-Bold" font-weight="bold" font-size="70.0" fill="#615B47" transform="matrix(1.00, 0.00, -0.00, -1.00, 1074.4, 791.0)">r</text><text xml:space="preserve" font-family="Didot-Bold" font-weight="bold" font-size="70.0" fill="#615B47" transform="matrix(1.00, 0.00, -0.00, -1.00, 1105.4, 791.0)">a</text><text xml:space="preserve" font-family="Didot-Bold" font-weight="bold" font-size="70.0" fill="#615B47" transform="matrix(1.00, 0.00, -0.00, -1.00, 1141.8, 791.0)">m</text><text xml:space="preserve" font-family="Didot-Bold" font-weight="bold" font-size="70.0" fill="#615B47" transform="matrix(1.00, 0.00, -0.00, -1.00, 1204.0, 791.0)">a</text><text xml:space="preserve" font-family="Didot-Bold" font-weight="bold" font-size="70.0" fill="#615B47" transform="matrix(1.00, 0.00, -0.00, -1.00, 1240.3, 791.0)">t</text><text xml:space="preserve" font-family="Didot-Bold" font-weight="bold" font-size="70.0" fill="#615B47" transform="matrix(1.00, 0.00, -0.00, -1.00, 1266.2, 791.0)">i</text><text xml:space="preserve" font-family="Didot-Bold" font-weight="bold" font-size="70.0" fill="#615B47" transform="matrix(1.00, 0.00, -0.00, -1.00, 1288.3, 791.0)">c</text><text xml:space="preserve" font-family="Didot-Bold" font-weight="bold" font-size="70.0" fill="#615B47" transform="matrix(1.00, 0.00, -0.00, -1.00, 1321.9, 791.0)"> </text><text xml:space="preserve" font-family="Didot-Bold" font-weight="bold" font-size="70.0" fill="#615B47" transform="matrix(1.00, 0.00, -0.00, -1.00, 1341.4, 791.0)">i</text><text xml:space="preserve" font-family="Didot-Bold" font-weight="bold" font-size="70.0" fill="#615B47" transform="matrix(1.00, 0.00, -0.00, -1.00, 1363.5, 791.0)">m</text><text xml:space="preserve" font-family="Didot-Bold" font-weight="bold" font-size="70.0" fill="#615B47" transform="matrix(1.00, 0.00, -0.00, -1.00, 1425.7, 791.0)">p</text><text xml:space="preserve" font-family="Didot-Bold" font-weight="bold" font-size="70.0" fill="#615B47" transform="matrix(1.00, 0.00, -0.00, -1.00, 1467.2, 791.0)">a</text><text xml:space="preserve" font-family="Didot-Bold" font-weight="bold" font-size="70.0" fill="#615B47" transform="matrix(1.00, 0.00, -0.00, -1.00, 1503.5, 791.0)">c</text><text xml:space="preserve" font-family="Didot-Bold" font-weight="bold" font-size="70.0" fill="#615B47" transform="matrix(1.00, 0.00, -0.00, -1.00, 1537.2, 791.0)">t</text><text xml:space="preserve" font-family="Didot-Bold" font-weight="bold" font-size="70.0" fill="#615B47" transform="matrix(1.00, 0.00, -0.00, -1.00, 1563.1, 791.0)"> </text><text xml:space="preserve" font-family="Didot-Bold" font-weight="bold" font-size="70.0" fill="#615B47" transform="matrix(1.00, 0.00, -0.00, -1.00, 1582.6, 791.0)">o</text><text xml:space="preserve" font-family="Didot-Bold" font-weight="bold" font-size="70.0" fill="#615B47" transform="matrix(1.00, 0.00, -0.00, -1.00, 1621.5, 791.0)">n</text><text xml:space="preserve" font-family="Didot-Bold" font-weight="bold" font-size="70.0" fill="#615B47" transform="matrix(1.00, 0.00, -0.00, -1.00, 1665.6, 791.0)"> </text><text xml:space="preserve" font-family="Didot-Bold" font-weight="bold" font-size="70.0" fill="#615B47" transform="matrix(1.00, 0.00, -0.00, -1.00, 1685.0, 791.0)">b</text><text xml:space="preserve" font-family="Didot-Bold" font-weight="bold" font-size="70.0" fill="#615B47" transform="matrix(1.00, 0.00, -0.00, -1.00, 1726.5, 791.0)">o</text><text xml:space="preserve" font-family="Didot-Bold" font-weight="bold" font-size="70.0" fill="#615B47" transform="matrix(1.00, 0.00, -0.00, -1.00, 1765.5, 791.0)">t</text><text xml:space="preserve" font-family="Didot-Bold" font-weight="bold" font-size="70.0" fill="#615B47" transform="matrix(1.00, 0.00, -0.00, -1.00, 1791.4, 791.0)">h</text><text xml:space="preserve" font-family="Didot-Bold" font-weight="bold" font-size="70.0" fill="#615B47" transform="matrix(1.00, 0.00, -0.00, -1.00, 1835.5, 791.0)"> </text><text xml:space="preserve" font-family="Didot-Bold" font-weight="bold" font-size="70.0" fill="#615B47" transform="matrix(1.00, 0.00, -0.00, -1.00, 108.0, 700.0)">u</text><text xml:space="preserve" font-family="Didot-Bold" font-weight="bold" font-size="70.0" fill="#615B47" transform="matrix(1.00, 0.00, -0.00, -1.00, 150.8, 700.0)">s</text><text xml:space="preserve" font-family="Didot-Bold" font-weight="bold" font-size="70.0" fill="#615B47" transform="matrix(1.00, 0.00, -0.00, -1.00, 180.6, 700.0)">e</text><text xml:space="preserve" font-family="Didot-Bold" font-weight="bold" font-size="70.0" fill="#615B47" transform="matrix(1.00, 0.00, -0.00, -1.00, 215.6, 700.0)">r</text><text xml:space="preserve" font-family="Didot-Bold" font-weight="bold" font-size="70.0" fill="#615B47" transform="matrix(1.00, 0.00, -0.00, -1.00, 246.7, 700.0)"> </text><text xml:space="preserve" font-family="Didot-Bold" font-weight="bold" font-size="70.0" fill="#615B47" transform="matrix(1.00, 0.00, -0.00, -1.00, 266.1, 700.0)">s</text><text xml:space="preserve" font-family="Didot-Bold" font-weight="bold" font-size="70.0" fill="#615B47" transform="matrix(1.00, 0.00, -0.00, -1.00, 296.0, 700.0)">a</text><text xml:space="preserve" font-family="Didot-Bold" font-weight="bold" font-size="70.0" fill="#615B47" transform="matrix(1.00, 0.00, -0.00, -1.00, 332.3, 700.0)">t</text><text xml:space="preserve" font-family="Didot-Bold" font-weight="bold" font-size="70.0" fill="#615B47" transform="matrix(1.00, 0.00, -0.00, -1.00, 358.2, 700.0)">i</text><text xml:space="preserve" font-family="Didot-Bold" font-weight="bold" font-size="70.0" fill="#615B47" transform="matrix(1.00, 0.00, -0.00, -1.00, 380.2, 700.0)">s</text><text xml:space="preserve" font-family="Didot-Bold" font-weight="bold" font-size="70.0" fill="#615B47" transform="matrix(1.00, 0.00, -0.00, -1.00, 410.1, 700.0)">f</text><text xml:space="preserve" font-family="Didot-Bold" font-weight="bold" font-size="70.0" fill="#615B47" transform="matrix(1.00, 0.00, -0.00, -1.00, 434.7, 700.0)">a</text><text xml:space="preserve" font-family="Didot-Bold" font-weight="bold" font-size="70.0" fill="#615B47" transform="matrix(1.00, 0.00, -0.00, -1.00, 471.0, 700.0)">c</text><text xml:space="preserve" font-family="Didot-Bold" font-weight="bold" font-size="70.0" fill="#615B47" transform="matrix(1.00, 0.00, -0.00, -1.00, 504.7, 700.0)">t</text><text xml:space="preserve" font-family="Didot-Bold" font-weight="bold" font-size="70.0" fill="#615B47" transform="matrix(1.00, 0.00, -0.00, -1.00, 530.6, 700.0)">i</text><text xml:space="preserve" font-family="Didot-Bold" font-weight="bold" font-size="70.0" fill="#615B47" transform="matrix(1.00, 0.00, -0.00, -1.00, 552.6, 700.0)">o</text><text xml:space="preserve" font-family="Didot-Bold" font-weight="bold" font-size="70.0" fill="#615B47" transform="matrix(1.00, 0.00, -0.00, -1.00, 591.6, 700.0)">n</text><text xml:space="preserve" font-family="Didot-Bold" font-weight="bold" font-size="70.0" fill="#615B47" transform="matrix(1.00, 0.00, -0.00, -1.00, 635.7, 700.0)"> </text><text xml:space="preserve" font-family="Didot-Bold" font-weight="bold" font-size="70.0" fill="#615B47" transform="matrix(1.00, 0.00, -0.00, -1.00, 655.1, 700.0)">a</text><text xml:space="preserve" font-family="Didot-Bold" font-weight="bold" font-size="70.0" fill="#615B47" transform="matrix(1.00, 0.00, -0.00, -1.00, 691.5, 700.0)">n</text><text xml:space="preserve" font-family="Didot-Bold" font-weight="bold" font-size="70.0" fill="#615B47" transform="matrix(1.00, 0.00, -0.00, -1.00, 735.6, 700.0)">d</text><text xml:space="preserve" font-family="Didot-Bold" font-weight="bold" font-size="70.0" fill="#615B47" transform="matrix(1.00, 0.00, -0.00, -1.00, 777.1, 700.0)"> </text><text xml:space="preserve" font-family="Didot-Bold" font-weight="bold" font-size="70.0" fill="#615B47" transform="matrix(1.00, 0.00, -0.00, -1.00, 796.5, 700.0)">r</text><text xml:space="preserve" font-family="Didot-Bold" font-weight="bold" font-size="70.0" fill="#615B47" transform="matrix(1.00, 0.00, -0.00, -1.00, 827.6, 700.0)">e</text><text xml:space="preserve" font-family="Didot-Bold" font-weight="bold" font-size="70.0" fill="#615B47" transform="matrix(1.00, 0.00, -0.00, -1.00, 861.9, 700.0)">v</text><text xml:space="preserve" font-family="Didot-Bold" font-weight="bold" font-size="70.0" fill="#615B47" transform="matrix(1.00, 0.00, -0.00, -1.00, 893.6, 700.0)">e</text><text xml:space="preserve" font-family="Didot-Bold" font-weight="bold" font-size="70.0" fill="#615B47" transform="matrix(1.00, 0.00, -0.00, -1.00, 928.6, 700.0)">n</text><text xml:space="preserve" font-family="Didot-Bold" font-weight="bold" font-size="70.0" fill="#615B47" transform="matrix(1.00, 0.00, -0.00, -1.00, 972.7, 700.0)">u</text><text xml:space="preserve" font-family="Didot-Bold" font-weight="bold" font-size="70.0" fill="#615B47" transform="matrix(1.00, 0.00, -0.00, -1.00, 1015.5, 700.0)">e</text><text xml:space="preserve" font-family="Didot-Bold" font-weight="bold" font-size="70.0" fill="#615B47" transform="matrix(1.00, 0.00, -0.00, -1.00, 1050.5, 700.0)"> </text><text xml:space="preserve" font-family="Didot-Bold" font-weight="bold" font-size="70.0" fill="#615B47" transform="matrix(1.00, 0.00, -0.00, -1.00, 1069.9, 700.0)">p</text><text xml:space="preserve" font-family="Didot-Bold" font-weight="bold" font-size="70.0" fill="#615B47" transform="matrix(1.00, 0.00, -0.00, -1.00, 1111.5, 700.0)">e</text><text xml:space="preserve" font-family="Didot-Bold" font-weight="bold" font-size="70.0" fill="#615B47" transform="matrix(1.00, 0.00, -0.00, -1.00, 1146.5, 700.0)">r</text><text xml:space="preserve" font-family="Didot-Bold" font-weight="bold" font-size="70.0" fill="#615B47" transform="matrix(1.00, 0.00, -0.00, -1.00, 1177.5, 700.0)"> </text><text xml:space="preserve" font-family="Didot-Bold" font-weight="bold" font-size="70.0" fill="#615B47" transform="matrix(1.00, 0.00, -0.00, -1.00, 1197.0, 700.0)">u</text><text xml:space="preserve" font-family="Didot-Bold" font-weight="bold" font-size="70.0" fill="#615B47" transform="matrix(1.00, 0.00, -0.00, -1.00, 1239.8, 700.0)">s</text><text xml:space="preserve" font-family="Didot-Bold" font-weight="bold" font-size="70.0" fill="#615B47" transform="matrix(1.00, 0.00, -0.00, -1.00, 1269.6, 700.0)">e</text><text xml:space="preserve" font-family="Didot-Bold" font-weight="bold" font-size="70.0" fill="#615B47" transform="matrix(1.00, 0.00, -0.00, -1.00, 1304.6, 700.0)">r</text><text xml:space="preserve" font-family="Didot-Bold" font-weight="bold" font-size="70.0" fill="#615B47" transform="matrix(1.00, 0.00, -0.00, -1.00, 1335.7, 700.0)">:</text><g><clipPath id="clip-11"><path d="M 446.5 622.5 L 1395.2 622.5 L 1395.2 326.1 L 446.5 326.1 Z M 446.5 622.5 "></path></clipPath><g clip-path="url(#clip-11)"><path d="M 447.0 622.0 L 685.2 622.0 L 685.2 535.2 L 447.0 535.2 Z M 447.0 622.0 " fill="#DBCAAB"></path><path d="M 685.2 622.0 L 1041.2 622.0 L 1041.2 535.2 L 685.2 535.2 Z M 685.2 622.0 " fill="#DBCAAB"></path><path d="M 1041.2 622.0 L 1394.7 622.0 L 1394.7 535.2 L 1041.2 535.2 Z M 1041.2 622.0 " fill="#DBCAAB"></path><path d="M 447.0 535.2 L 685.2 535.2 L 685.2 413.7 L 447.0 413.7 Z M 447.0 535.2 " fill="#DBCAAB"></path><path d="M 685.2 535.2 L 1041.2 535.2 L 1041.2 413.7 L 685.2 413.7 Z M 685.2 535.2 " fill="#EBDDB5"></path><path d="M 1041.2 535.2 L 1394.7 535.2 L 1394.7 413.7 L 1041.2 413.7 Z M 1041.2 535.2 " fill="#EBDDB5"></path><path d="M 447.0 413.7 L 685.2 413.7 L 685.2 326.6 L 447.0 326.6 Z M 447.0 413.7 " fill="#DBCAAB"></path><path d="M 685.2 413.7 L 1041.2 413.7 L 1041.2 326.6 L 685.2 326.6 Z M 685.2 413.7 " fill="#EBDDB5"></path><path d="M 1041.2 413.7 L 1394.7 413.7 L 1394.7 326.6 L 1041.2 326.6 Z M 1041.2 413.7 " fill="#EBDDB5"></path></g></g><g><clipPath id="clip-12"><path d="M 446.5 622.5 L 1395.2 622.5 L 1395.2 326.1 L 446.5 326.1 Z M 446.5 622.5 "></path></clipPath><g clip-path="url(#clip-12)"><g><clipPath id="clip-13"><path d="M 685.7 535.7 L 1040.7 535.7 L 1040.7 621.5 L 685.7 621.5 Z M 685.7 535.7 "></path></clipPath><g clip-path="url(#clip-13)"><text xml:space="preserve" font-family="Didot-Bold" font-weight="bold" font-size="42.0" fill="#343428" transform="matrix(1.00, 0.00, -0.00, -1.00, 697.0, 564.0)">U</text><text xml:space="preserve" font-family="Didot-Bold" font-weight="bold" font-size="42.0" fill="#343428" transform="matrix(1.00, 0.00, -0.00, -1.00, 729.7, 564.0)">s</text><text xml:space="preserve" font-family="Didot-Bold" font-weight="bold" font-size="42.0" fill="#343428" transform="matrix(1.00, 0.00, -0.00, -1.00, 747.6, 564.0)">e</text><text xml:space="preserve" font-family="Didot-Bold" font-weight="bold" font-size="42.0" fill="#343428" transform="matrix(1.00, 0.00, -0.00, -1.00, 768.6, 564.0)">r</text><text xml:space="preserve" font-family="Didot-Bold" font-weight="bold" font-size="42.0" fill="#343428" transform="matrix(1.00, 0.00, -0.00, -1.00, 787.2, 564.0)"> </text><text xml:space="preserve" font-family="Didot-Bold" font-weight="bold" font-size="42.0" fill="#343428" transform="matrix(1.00, 0.00, -0.00, -1.00, 798.9, 564.0)">S</text><text xml:space="preserve" font-family="Didot-Bold" font-weight="bold" font-size="42.0" fill="#343428" transform="matrix(1.00, 0.00, -0.00, -1.00, 826.1, 564.0)">a</text><text xml:space="preserve" font-family="Didot-Bold" font-weight="bold" font-size="42.0" fill="#343428" transform="matrix(1.00, 0.00, -0.00, -1.00, 847.9, 564.0)">t</text><text xml:space="preserve" font-family="Didot-Bold" font-weight="bold" font-size="42.0" fill="#343428" transform="matrix(1.00, 0.00, -0.00, -1.00, 863.4, 564.0)">i</text><text xml:space="preserve" font-family="Didot-Bold" font-weight="bold" font-size="42.0" fill="#343428" transform="matrix(1.00, 0.00, -0.00, -1.00, 876.7, 564.0)">s</text><text xml:space="preserve" font-family="Didot-Bold" font-weight="bold" font-size="42.0" fill="#343428" transform="matrix(1.00, 0.00, -0.00, -1.00, 894.6, 564.0)">f</text><text xml:space="preserve" font-family="Didot-Bold" font-weight="bold" font-size="42.0" fill="#343428" transform="matrix(1.00, 0.00, -0.00, -1.00, 909.4, 564.0)">a</text><text xml:space="preserve" font-family="Didot-Bold" font-weight="bold" font-size="42.0" fill="#343428" transform="matrix(1.00, 0.00, -0.00, -1.00, 931.1, 564.0)">c</text><text xml:space="preserve" font-family="Didot-Bold" font-weight="bold" font-size="42.0" fill="#343428" transform="matrix(1.00, 0.00, -0.00, -1.00, 951.4, 564.0)">t</text><text xml:space="preserve" font-family="Didot-Bold" font-weight="bold" font-size="42.0" fill="#343428" transform="matrix(1.00, 0.00, -0.00, -1.00, 966.9, 564.0)">i</text><text xml:space="preserve" font-family="Didot-Bold" font-weight="bold" font-size="42.0" fill="#343428" transform="matrix(1.00, 0.00, -0.00, -1.00, 980.1, 564.0)">o</text><text xml:space="preserve" font-family="Didot-Bold" font-weight="bold" font-size="42.0" fill="#343428" transform="matrix(1.00, 0.00, -0.00, -1.00, 1003.5, 564.0)">n</text></g></g></g></g><g><clipPath id="clip-14"><path d="M 446.5 622.5 L 1395.2 622.5 L 1395.2 326.1 L 446.5 326.1 Z M 446.5 622.5 "></path></clipPath><g clip-path="url(#clip-14)"><g><clipPath id="clip-15"><path d="M 1041.7 535.7 L 1394.2 535.7 L 1394.2 621.5 L 1041.7 621.5 Z M 1041.7 535.7 "></path></clipPath><g clip-path="url(#clip-15)"><text xml:space="preserve" font-family="Didot-Bold" font-weight="bold" font-size="42.0" fill="#343428" transform="matrix(1.00, 0.00, -0.00, -1.00, 1085.0, 564.0)">R</text><text xml:space="preserve" font-family="Didot-Bold" font-weight="bold" font-size="42.0" fill="#343428" transform="matrix(1.00, 0.00, -0.00, -1.00, 1115.3, 564.0)">e</text><text xml:space="preserve" font-family="Didot-Bold" font-weight="bold" font-size="42.0" fill="#343428" transform="matrix(1.00, 0.00, -0.00, -1.00, 1135.9, 564.0)">v</text><text xml:space="preserve" font-family="Didot-Bold" font-weight="bold" font-size="42.0" fill="#343428" transform="matrix(1.00, 0.00, -0.00, -1.00, 1154.9, 564.0)">e</text><text xml:space="preserve" font-family="Didot-Bold" font-weight="bold" font-size="42.0" fill="#343428" transform="matrix(1.00, 0.00, -0.00, -1.00, 1175.9, 564.0)">n</text><text xml:space="preserve" font-family="Didot-Bold" font-weight="bold" font-size="42.0" fill="#343428" transform="matrix(1.00, 0.00, -0.00, -1.00, 1202.4, 564.0)">u</text><text xml:space="preserve" font-family="Didot-Bold" font-weight="bold" font-size="42.0" fill="#343428" transform="matrix(1.00, 0.00, -0.00, -1.00, 1228.1, 564.0)">e</text><text xml:space="preserve" font-family="Didot-Bold" font-weight="bold" font-size="42.0" fill="#343428" transform="matrix(1.00, 0.00, -0.00, -1.00, 1249.1, 564.0)">/</text><text xml:space="preserve" font-family="Didot-Bold" font-weight="bold" font-size="42.0" fill="#343428" transform="matrix(1.00, 0.00, -0.00, -1.00, 1261.5, 564.0)">U</text><text xml:space="preserve" font-family="Didot-Bold" font-weight="bold" font-size="42.0" fill="#343428" transform="matrix(1.00, 0.00, -0.00, -1.00, 1294.2, 564.0)">s</text><text xml:space="preserve" font-family="Didot-Bold" font-weight="bold" font-size="42.0" fill="#343428" transform="matrix(1.00, 0.00, -0.00, -1.00, 1312.1, 564.0)">e</text><text xml:space="preserve" font-family="Didot-Bold" font-weight="bold" font-size="42.0" fill="#343428" transform="matrix(1.00, 0.00, -0.00, -1.00, 1333.1, 564.0)">r</text></g></g></g></g><g><clipPath id="clip-16"><path d="M 446.5 622.5 L 1395.2 622.5 L 1395.2 326.1 L 446.5 326.1 Z M 446.5 622.5 "></path></clipPath><g clip-path="url(#clip-16)"><g><clipPath id="clip-17"><path d="M 447.5 414.2 L 684.7 414.2 L 684.7 534.7 L 447.5 534.7 Z M 447.5 414.2 "></path></clipPath><g clip-path="url(#clip-17)"><text xml:space="preserve" font-family="Didot-Bold" font-weight="bold" font-size="42.0" fill="#343428" transform="matrix(1.00, 0.00, -0.00, -1.00, 492.0, 460.0)">1</text><text xml:space="preserve" font-family="Didot-Bold" font-weight="bold" font-size="42.0" fill="#343428" transform="matrix(1.00, 0.00, -0.00, -1.00, 515.4, 460.0)">0</text><text xml:space="preserve" font-family="Didot-Bold" font-weight="bold" font-size="42.0" fill="#343428" transform="matrix(1.00, 0.00, -0.00, -1.00, 538.7, 460.0)">0</text><text xml:space="preserve" font-family="Didot-Bold" font-weight="bold" font-size="42.0" fill="#343428" transform="matrix(1.00, 0.00, -0.00, -1.00, 562.1, 460.0)">0</text><text xml:space="preserve" font-family="Didot-Bold" font-weight="bold" font-size="42.0" fill="#343428" transform="matrix(1.00, 0.00, -0.00, -1.00, 585.4, 460.0)">m</text><text xml:space="preserve" font-family="Didot-Bold" font-weight="bold" font-size="42.0" fill="#343428" transform="matrix(1.00, 0.00, -0.00, -1.00, 622.7, 460.0)">s</text></g></g></g></g><g><clipPath id="clip-18"><path d="M 446.5 622.5 L 1395.2 622.5 L 1395.2 326.1 L 446.5 326.1 Z M 446.5 622.5 "></path></clipPath><g clip-path="url(#clip-18)"><g><clipPath id="clip-19"><path d="M 685.7 414.2 L 1040.7 414.2 L 1040.7 534.7 L 685.7 534.7 Z M 685.7 414.2 "></path></clipPath><g clip-path="url(#clip-19)"><text xml:space="preserve" font-family="Didot-Bold" font-weight="bold" font-size="42.0" fill="#59411C" transform="matrix(1.00, 0.00, -0.00, -1.00, 810.0, 460.0)">-</text><text xml:space="preserve" font-family="Didot-Bold" font-weight="bold" font-size="42.0" fill="#59411C" transform="matrix(1.00, 0.00, -0.00, -1.00, 825.5, 460.0)">1</text><text xml:space="preserve" font-family="Didot-Bold" font-weight="bold" font-size="42.0" fill="#59411C" transform="matrix(1.00, 0.00, -0.00, -1.00, 848.9, 460.0)">.</text><text xml:space="preserve" font-family="Didot-Bold" font-weight="bold" font-size="42.0" fill="#59411C" transform="matrix(1.00, 0.00, -0.00, -1.00, 860.6, 460.0)">6</text><text xml:space="preserve" font-family="Didot-Bold" font-weight="bold" font-size="42.0" fill="#59411C" transform="matrix(1.00, 0.00, -0.00, -1.00, 883.9, 460.0)">%</text></g></g></g></g><g><clipPath id="clip-20"><path d="M 446.5 622.5 L 1395.2 622.5 L 1395.2 326.1 L 446.5 326.1 Z M 446.5 622.5 "></path></clipPath><g clip-path="url(#clip-20)"><g><clipPath id="clip-21"><path d="M 1041.7 414.2 L 1394.2 414.2 L 1394.2 534.7 L 1041.7 534.7 Z M 1041.7 414.2 "></path></clipPath><g clip-path="url(#clip-21)"><text xml:space="preserve" font-family="Didot-Bold" font-weight="bold" font-size="42.0" fill="#59411C" transform="matrix(1.00, 0.00, -0.00, -1.00, 1165.0, 460.0)">-</text><text xml:space="preserve" font-family="Didot-Bold" font-weight="bold" font-size="42.0" fill="#59411C" transform="matrix(1.00, 0.00, -0.00, -1.00, 1180.5, 460.0)">2</text><text xml:space="preserve" font-family="Didot-Bold" font-weight="bold" font-size="42.0" fill="#59411C" transform="matrix(1.00, 0.00, -0.00, -1.00, 1203.9, 460.0)">.</text><text xml:space="preserve" font-family="Didot-Bold" font-weight="bold" font-size="42.0" fill="#59411C" transform="matrix(1.00, 0.00, -0.00, -1.00, 1215.6, 460.0)">3</text><text xml:space="preserve" font-family="Didot-Bold" font-weight="bold" font-size="42.0" fill="#59411C" transform="matrix(1.00, 0.00, -0.00, -1.00, 1238.9, 460.0)">%</text></g></g></g></g><g><clipPath id="clip-22"><path d="M 446.5 622.5 L 1395.2 622.5 L 1395.2 326.1 L 446.5 326.1 Z M 446.5 622.5 "></path></clipPath><g clip-path="url(#clip-22)"><g><clipPath id="clip-23"><path d="M 447.5 327.1 L 684.7 327.1 L 684.7 413.2 L 447.5 413.2 Z M 447.5 327.1 "></path></clipPath><g clip-path="url(#clip-23)"><text xml:space="preserve" font-family="Didot-Bold" font-weight="bold" font-size="42.0" fill="#343428" transform="matrix(1.00, 0.00, -0.00, -1.00, 492.0, 356.0)">2</text><text xml:space="preserve" font-family="Didot-Bold" font-weight="bold" font-size="42.0" fill="#343428" transform="matrix(1.00, 0.00, -0.00, -1.00, 515.4, 356.0)">0</text><text xml:space="preserve" font-family="Didot-Bold" font-weight="bold" font-size="42.0" fill="#343428" transform="matrix(1.00, 0.00, -0.00, -1.00, 538.7, 356.0)">0</text><text xml:space="preserve" font-family="Didot-Bold" font-weight="bold" font-size="42.0" fill="#343428" transform="matrix(1.00, 0.00, -0.00, -1.00, 562.1, 356.0)">0</text><text xml:space="preserve" font-family="Didot-Bold" font-weight="bold" font-size="42.0" fill="#343428" transform="matrix(1.00, 0.00, -0.00, -1.00, 585.4, 356.0)">m</text><text xml:space="preserve" font-family="Didot-Bold" font-weight="bold" font-size="42.0" fill="#343428" transform="matrix(1.00, 0.00, -0.00, -1.00, 622.7, 356.0)">s</text></g></g></g></g><g><clipPath id="clip-24"><path d="M 446.5 622.5 L 1395.2 622.5 L 1395.2 326.1 L 446.5 326.1 Z M 446.5 622.5 "></path></clipPath><g clip-path="url(#clip-24)"><g><clipPath id="clip-25"><path d="M 685.7 327.1 L 1040.7 327.1 L 1040.7 413.2 L 685.7 413.2 Z M 685.7 327.1 "></path></clipPath><g clip-path="url(#clip-25)"><text xml:space="preserve" font-family="Didot-Bold" font-weight="bold" font-size="42.0" fill="#59411C" transform="matrix(1.00, 0.00, -0.00, -1.00, 810.0, 356.0)">-</text><text xml:space="preserve" font-family="Didot-Bold" font-weight="bold" font-size="42.0" fill="#59411C" transform="matrix(1.00, 0.00, -0.00, -1.00, 825.5, 356.0)">3</text><text xml:space="preserve" font-family="Didot-Bold" font-weight="bold" font-size="42.0" fill="#59411C" transform="matrix(1.00, 0.00, -0.00, -1.00, 848.9, 356.0)">.</text><text xml:space="preserve" font-family="Didot-Bold" font-weight="bold" font-size="42.0" fill="#59411C" transform="matrix(1.00, 0.00, -0.00, -1.00, 860.6, 356.0)">8</text><text xml:space="preserve" font-family="Didot-Bold" font-weight="bold" font-size="42.0" fill="#59411C" transform="matrix(1.00, 0.00, -0.00, -1.00, 883.9, 356.0)">%</text></g></g></g></g><g><clipPath id="clip-26"><path d="M 446.5 622.5 L 1395.2 622.5 L 1395.2 326.1 L 446.5 326.1 Z M 446.5 622.5 "></path></clipPath><g clip-path="url(#clip-26)"><g><clipPath id="clip-27"><path d="M 1041.7 327.1 L 1394.2 327.1 L 1394.2 413.2 L 1041.7 413.2 Z M 1041.7 327.1 "></path></clipPath><g clip-path="url(#clip-27)"><text xml:space="preserve" font-family="Didot-Bold" font-weight="bold" font-size="42.0" fill="#59411C" transform="matrix(1.00, 0.00, -0.00, -1.00, 1165.0, 356.0)">-</text><text xml:space="preserve" font-family="Didot-Bold" font-weight="bold" font-size="42.0" fill="#59411C" transform="matrix(1.00, 0.00, -0.00, -1.00, 1180.5, 356.0)">4</text><text xml:space="preserve" font-family="Didot-Bold" font-weight="bold" font-size="42.0" fill="#59411C" transform="matrix(1.00, 0.00, -0.00, -1.00, 1203.9, 356.0)">.</text><text xml:space="preserve" font-family="Didot-Bold" font-weight="bold" font-size="42.0" fill="#59411C" transform="matrix(1.00, 0.00, -0.00, -1.00, 1215.6, 356.0)">3</text><text xml:space="preserve" font-family="Didot-Bold" font-weight="bold" font-size="42.0" fill="#59411C" transform="matrix(1.00, 0.00, -0.00, -1.00, 1238.9, 356.0)">%</text></g></g></g></g><g><clipPath id="clip-28"><path d="M 446.5 622.5 L 1395.2 622.5 L 1395.2 326.1 L 446.5 326.1 Z M 446.5 622.5 "></path></clipPath><g clip-path="url(#clip-28)"><path d="M 596.2 1.5 L 596.2 88.8 " fill="none" stroke="#B8A892" stroke-width="1.00" transform="matrix(1.00, 0.00, 0.00, -1.00, 445.0, 624.0)"></path><path d="M 596.2 88.8 L 596.2 297.9 " fill="none" stroke="#B8A892" stroke-width="1.00" transform="matrix(1.00, 0.00, 0.00, -1.00, 445.0, 624.0)"></path><path d="M 1.5 210.3 L 240.2 210.3 " fill="none" stroke="#B8A892" stroke-width="1.00" transform="matrix(1.00, 0.00, 0.00, -1.00, 445.0, 624.0)"></path><path d="M 240.2 210.3 L 950.2 210.3 " fill="none" stroke="#B8A892" stroke-width="1.00" transform="matrix(1.00, 0.00, 0.00, -1.00, 445.0, 624.0)"></path><path d="M 240.2 1.5 L 240.2 88.8 " fill="none" stroke="#B8A892" stroke-width="1.00" transform="matrix(1.00, 0.00, 0.00, -1.00, 445.0, 624.0)"></path><path d="M 240.2 88.8 L 240.2 297.9 " fill="none" stroke="#343428" stroke-width="1.00" transform="matrix(1.00, 0.00, 0.00, -1.00, 445.0, 624.0)"></path><path d="M 1.5 88.8 L 950.2 88.8 " fill="none" stroke="#343428" stroke-width="1.00" transform="matrix(1.00, 0.00, 0.00, -1.00, 445.0, 624.0)"></path><path d="M 2.0 1.5 L 2.0 88.8 " fill="none" stroke="#000000" stroke-width="1.00" transform="matrix(1.00, 0.00, 0.00, -1.00, 445.0, 624.0)"></path><path d="M 2.0 88.8 L 2.0 297.9 " fill="none" stroke="#000000" stroke-width="1.00" transform="matrix(1.00, 0.00, 0.00, -1.00, 445.0, 624.0)"></path><path d="M 949.7 1.5 L 949.7 88.8 " fill="none" stroke="#000000" stroke-width="1.00" transform="matrix(1.00, 0.00, 0.00, -1.00, 445.0, 624.0)"></path><path d="M 949.7 88.8 L 949.7 297.9 " fill="none" stroke="#000000" stroke-width="1.00" transform="matrix(1.00, 0.00, 0.00, -1.00, 445.0, 624.0)"></path><path d="M 1.5 2.0 L 950.2 2.0 " fill="none" stroke="#000000" stroke-width="1.00" transform="matrix(1.00, 0.00, 0.00, -1.00, 445.0, 624.0)"></path><path d="M 1.5 297.4 L 240.2 297.4 " fill="none" stroke="#000000" stroke-width="1.00" transform="matrix(1.00, 0.00, 0.00, -1.00, 445.0, 624.0)"></path><path d="M 240.2 297.4 L 950.2 297.4 " fill="none" stroke="#000000" stroke-width="1.00" transform="matrix(1.00, 0.00, 0.00, -1.00, 445.0, 624.0)"></path></g></g><text xml:space="preserve" font-family="Didot-Bold" font-weight="bold" font-size="24.0" fill="#51563E" transform="matrix(1.00, 0.00, -0.00, -1.00, 953.0, 11.0)">5</text></g></svg>