<?xml version="1.0" encoding="UTF-8" standalone="no"?><svg xmlns="http://www.w3.org/2000/svg" xmlns:xlink="http://www.w3.org/1999/xlink" clip-rule="evenodd" stroke-miterlimit="4.00" viewBox="0 0 1920 1080"><desc>SVG generated by Keynote</desc><defs></defs><g transform="matrix(1.00, 0.00, -0.00, -1.00, 0.0, 1080.0)"><g><clipPath id="clip-67"><path d="M 0.0 1080.0 L 1920.0 1080.0 L 1920.0 0.0 L 0.0 0.0 Z M 0.0 1080.0 "></path></clipPath><g clip-path="url(#clip-67)"><image xlink:href="../../95F339C0-7E9C-479A-A4F3-8E8E57B86552/assets/88831F5924BAFE0A5231EE8BF08C848B.jpeg" width="1365.00" height="767.00" transform="matrix(1.41, 0.00, -0.00, -1.41, 0.0, 1080.0)"></image></g></g><text xml:space="preserve" font-family="Didot" font-size="106.0" fill="#846049" transform="matrix(1.00, 0.00, -0.00, -1.00, 519.0, 627.0)">p</text><text xml:space="preserve" font-family="Didot" font-size="106.0" fill="#846049" transform="matrix(1.00, 0.00, -0.00, -1.00, 581.9, 627.0)">i</text><text xml:space="preserve" font-family="Didot" font-size="106.0" fill="#846049" transform="matrix(1.00, 0.00, -0.00, -1.00, 613.2, 627.0)">p</text><text xml:space="preserve" font-family="Didot" font-size="106.0" fill="#846049" transform="matrix(1.00, 0.00, -0.00, -1.00, 676.1, 627.0)"> </text><text xml:space="preserve" font-family="Didot" font-size="106.0" fill="#846049" transform="matrix(1.00, 0.00, -0.00, -1.00, 705.6, 627.0)">i</text><text xml:space="preserve" font-family="Didot" font-size="106.0" fill="#846049" transform="matrix(1.00, 0.00, -0.00, -1.00, 736.9, 627.0)">n</text><text xml:space="preserve" font-family="Didot" font-size="106.0" fill="#846049" transform="matrix(1.00, 0.00, -0.00, -1.00, 801.7, 627.0)">s</text><text xml:space="preserve" font-family="Didot" font-size="106.0" fill="#846049" transform="matrix(1.00, 0.00, -0.00, -1.00, 846.9, 627.0)">t</text><text xml:space="preserve" font-family="Didot" font-size="106.0" fill="#846049" transform="matrix(1.00, 0.00, -0.00, -1.00, 882.2, 627.0)">a</text><text xml:space="preserve" font-family="Didot" font-size="106.0" fill="#846049" transform="matrix(1.00, 0.00, -0.00, -1.00, 933.1, 627.0)">l</text><text xml:space="preserve" font-family="Didot" font-size="106.0" fill="#846049" transform="matrix(1.00, 0.00, -0.00, -1.00, 964.5, 627.0)">l</text><text xml:space="preserve" font-family="Didot" font-size="106.0" fill="#846049" transform="matrix(1.00, 0.00, -0.00, -1.00, 995.9, 627.0)"> </text><text xml:space="preserve" font-family="Didot" font-size="106.0" fill="#846049" transform="matrix(1.00, 0.00, -0.00, -1.00, 1025.4, 627.0)">l</text><text xml:space="preserve" font-family="Didot" font-size="106.0" fill="#846049" transform="matrix(1.00, 0.00, -0.00, -1.00, 1056.7, 627.0)">o</text><text xml:space="preserve" font-family="Didot" font-size="106.0" fill="#846049" transform="matrix(1.00, 0.00, -0.00, -1.00, 1115.7, 627.0)">c</text><text xml:space="preserve" font-family="Didot" font-size="106.0" fill="#846049" transform="matrix(1.00, 0.00, -0.00, -1.00, 1166.7, 627.0)">u</text><text xml:space="preserve" font-family="Didot" font-size="106.0" fill="#846049" transform="matrix(1.00, 0.00, -0.00, -1.00, 1229.5, 627.0)">s</text><text xml:space="preserve" font-family="Didot" font-size="106.0" fill="#846049" transform="matrix(1.00, 0.00, -0.00, -1.00, 1274.7, 627.0)">t</text><text xml:space="preserve" font-family="Didot" font-size="106.0" fill="#846049" transform="matrix(1.00, 0.00, -0.00, -1.00, 1310.0, 627.0)">i</text><text xml:space="preserve" font-family="Didot" font-size="106.0" fill="#846049" transform="matrix(1.00, 0.00, -0.00, -1.00, 1341.3, 627.0)">o</text><text xml:space="preserve" font-family="Didot-Bold" font-weight="bold" font-size="24.0" fill="#51563E" transform="matrix(1.00, 0.00, -0.00, -1.00, 946.0, 11.0)">1</text><text xml:space="preserve" font-family="Didot-Bold" font-weight="bold" font-size="24.0" fill="#51563E" transform="matrix(1.00, 0.00, -0.00, -1.00, 959.3, 11.0)">3</text></g></svg>