<?xml version="1.0" encoding="UTF-8" standalone="no"?><svg xmlns="http://www.w3.org/2000/svg" xmlns:xlink="http://www.w3.org/1999/xlink" clip-rule="evenodd" stroke-miterlimit="4.00" viewBox="0 0 1920 1080"><desc>SVG generated by Keynote</desc><defs></defs><g transform="matrix(1.00, 0.00, -0.00, -1.00, 0.0, 1080.0)"><g><clipPath id="clip-81"><path d="M 0.0 1080.0 L 1920.0 1080.0 L 1920.0 0.0 L 0.0 0.0 Z M 0.0 1080.0 "></path></clipPath><g clip-path="url(#clip-81)"><image xlink:href="../../95F339C0-7E9C-479A-A4F3-8E8E57B86552/assets/88831F5924BAFE0A5231EE8BF08C848B.jpeg" width="1365.00" height="767.00" transform="matrix(1.41, 0.00, -0.00, -1.41, 0.0, 1080.0)"></image></g></g><text xml:space="preserve" font-family="Didot" font-size="81.6" fill="#846049" transform="matrix(1.00, 0.00, -0.00, -1.00, 456.0, 936.0)">V</text><text xml:space="preserve" font-family="Didot" font-size="81.6" fill="#846049" transform="matrix(1.00, 0.00, -0.00, -1.00, 512.9, 936.0)">i</text><text xml:space="preserve" font-family="Didot" font-size="81.6" fill="#846049" transform="matrix(1.00, 0.00, -0.00, -1.00, 537.0, 936.0)">r</text><text xml:space="preserve" font-family="Didot" font-size="81.6" fill="#846049" transform="matrix(1.00, 0.00, -0.00, -1.00, 570.3, 936.0)">t</text><text xml:space="preserve" font-family="Didot" font-size="81.6" fill="#846049" transform="matrix(1.00, 0.00, -0.00, -1.00, 597.4, 936.0)">u</text><text xml:space="preserve" font-family="Didot" font-size="81.6" fill="#846049" transform="matrix(1.00, 0.00, -0.00, -1.00, 645.8, 936.0)">a</text><text xml:space="preserve" font-family="Didot" font-size="81.6" fill="#846049" transform="matrix(1.00, 0.00, -0.00, -1.00, 685.1, 936.0)">l</text><text xml:space="preserve" font-family="Didot" font-size="81.6" fill="#846049" transform="matrix(1.00, 0.00, -0.00, -1.00, 709.3, 936.0)"> </text><text xml:space="preserve" font-family="Didot" font-size="81.6" fill="#846049" transform="matrix(1.00, 0.00, -0.00, -1.00, 732.0, 936.0)">U</text><text xml:space="preserve" font-family="Didot" font-size="81.6" fill="#846049" transform="matrix(1.00, 0.00, -0.00, -1.00, 793.9, 936.0)">s</text><text xml:space="preserve" font-family="Didot" font-size="81.6" fill="#846049" transform="matrix(1.00, 0.00, -0.00, -1.00, 828.7, 936.0)">e</text><text xml:space="preserve" font-family="Didot" font-size="81.6" fill="#846049" transform="matrix(1.00, 0.00, -0.00, -1.00, 869.5, 936.0)">r</text><text xml:space="preserve" font-family="Didot" font-size="81.6" fill="#846049" transform="matrix(1.00, 0.00, -0.00, -1.00, 902.7, 936.0)"> </text><text xml:space="preserve" font-family="Didot" font-size="81.6" fill="#846049" transform="matrix(1.00, 0.00, -0.00, -1.00, 925.4, 936.0)">v</text><text xml:space="preserve" font-family="Didot" font-size="81.6" fill="#846049" transform="matrix(1.00, 0.00, -0.00, -1.00, 964.7, 936.0)">s</text><text xml:space="preserve" font-family="Didot" font-size="81.6" fill="#846049" transform="matrix(1.00, 0.00, -0.00, -1.00, 999.4, 936.0)"> </text><text xml:space="preserve" font-family="Didot" font-size="81.6" fill="#846049" transform="matrix(1.00, 0.00, -0.00, -1.00, 1014.8, 936.0)">T</text><text xml:space="preserve" font-family="Didot" font-size="81.6" fill="#846049" transform="matrix(1.00, 0.00, -0.00, -1.00, 1070.6, 936.0)">h</text><text xml:space="preserve" font-family="Didot" font-size="81.6" fill="#846049" transform="matrix(1.00, 0.00, -0.00, -1.00, 1120.5, 936.0)">r</text><text xml:space="preserve" font-family="Didot" font-size="81.6" fill="#846049" transform="matrix(1.00, 0.00, -0.00, -1.00, 1153.7, 936.0)">o</text><text xml:space="preserve" font-family="Didot" font-size="81.6" fill="#846049" transform="matrix(1.00, 0.00, -0.00, -1.00, 1199.1, 936.0)">u</text><text xml:space="preserve" font-family="Didot" font-size="81.6" fill="#846049" transform="matrix(1.00, 0.00, -0.00, -1.00, 1247.5, 936.0)">g</text><text xml:space="preserve" font-family="Didot" font-size="81.6" fill="#846049" transform="matrix(1.00, 0.00, -0.00, -1.00, 1289.8, 936.0)">h</text><text xml:space="preserve" font-family="Didot" font-size="81.6" fill="#846049" transform="matrix(1.00, 0.00, -0.00, -1.00, 1339.7, 936.0)">p</text><text xml:space="preserve" font-family="Didot" font-size="81.6" fill="#846049" transform="matrix(1.00, 0.00, -0.00, -1.00, 1388.1, 936.0)">u</text><text xml:space="preserve" font-family="Didot" font-size="81.6" fill="#846049" transform="matrix(1.00, 0.00, -0.00, -1.00, 1436.5, 936.0)">t</text><image xlink:href="../../334EF0CD-2966-442E-9B8D-6F2700E299AC/assets/3F8D179582DE589F9983C6BACB44FD78.png" width="1271.00" height="502.00" transform="matrix(1.43, 0.00, -0.00, -1.43, 53.0, 878.0)"></image><image xlink:href="../../334EF0CD-2966-442E-9B8D-6F2700E299AC/assets/295B7E931D979C36B7DCA39FCEFDDD3D.png" width="1812.00" height="713.00" transform="matrix(1.00, 0.00, -0.00, 1.00, 54.0, 163.0)"></image></g></svg>