<?xml version="1.0" encoding="UTF-8" standalone="no"?><svg xmlns="http://www.w3.org/2000/svg" xmlns:xlink="http://www.w3.org/1999/xlink" clip-rule="evenodd" stroke-miterlimit="4.00" viewBox="0 0 1920 1080"><desc>SVG generated by Keynote</desc><defs></defs><g transform="matrix(1.00, 0.00, -0.00, -1.00, 0.0, 1080.0)"><g><clipPath id="clip-51"><path d="M 0.0 1080.0 L 1920.0 1080.0 L 1920.0 0.0 L 0.0 0.0 Z M 0.0 1080.0 "></path></clipPath><g clip-path="url(#clip-51)"><image xlink:href="../../95F339C0-7E9C-479A-A4F3-8E8E57B86552/assets/88831F5924BAFE0A5231EE8BF08C848B.jpeg" width="1365.00" height="767.00" transform="matrix(1.41, 0.00, -0.00, -1.41, 0.0, 1080.0)"></image></g></g><text xml:space="preserve" font-family="Didot-Bold" font-weight="bold" font-size="70.0" fill="#615B47" transform="matrix(1.00, 0.00, -0.00, -1.00, 270.0, 591.0)">M</text><text xml:space="preserve" font-family="Didot-Bold" font-weight="bold" font-size="70.0" fill="#615B47" transform="matrix(1.00, 0.00, -0.00, -1.00, 334.8, 591.0)">a</text><text xml:space="preserve" font-family="Didot-Bold" font-weight="bold" font-size="70.0" fill="#615B47" transform="matrix(1.00, 0.00, -0.00, -1.00, 371.1, 591.0)">k</text><text xml:space="preserve" font-family="Didot-Bold" font-weight="bold" font-size="70.0" fill="#615B47" transform="matrix(1.00, 0.00, -0.00, -1.00, 412.7, 591.0)">i</text><text xml:space="preserve" font-family="Didot-Bold" font-weight="bold" font-size="70.0" fill="#615B47" transform="matrix(1.00, 0.00, -0.00, -1.00, 434.7, 591.0)">n</text><text xml:space="preserve" font-family="Didot-Bold" font-weight="bold" font-size="70.0" fill="#615B47" transform="matrix(1.00, 0.00, -0.00, -1.00, 478.8, 591.0)">g</text><text xml:space="preserve" font-family="Didot-Bold" font-weight="bold" font-size="70.0" fill="#615B47" transform="matrix(1.00, 0.00, -0.00, -1.00, 516.4, 591.0)"> </text><text xml:space="preserve" font-family="Didot-Bold" font-weight="bold" font-size="70.0" fill="#615B47" transform="matrix(1.00, 0.00, -0.00, -1.00, 535.9, 591.0)">B</text><text xml:space="preserve" font-family="Didot-Bold" font-weight="bold" font-size="70.0" fill="#615B47" transform="matrix(1.00, 0.00, -0.00, -1.00, 583.8, 591.0)">a</text><text xml:space="preserve" font-family="Didot-Bold" font-weight="bold" font-size="70.0" fill="#615B47" transform="matrix(1.00, 0.00, -0.00, -1.00, 620.1, 591.0)">r</text><text xml:space="preserve" font-family="Didot-Bold" font-weight="bold" font-size="70.0" fill="#615B47" transform="matrix(1.00, 0.00, -0.00, -1.00, 651.2, 591.0)">a</text><text xml:space="preserve" font-family="Didot-Bold" font-weight="bold" font-size="70.0" fill="#615B47" transform="matrix(1.00, 0.00, -0.00, -1.00, 687.5, 591.0)">c</text><text xml:space="preserve" font-family="Didot-Bold" font-weight="bold" font-size="70.0" fill="#615B47" transform="matrix(1.00, 0.00, -0.00, -1.00, 720.5, 591.0)">k</text><text xml:space="preserve" font-family="Didot-Bold" font-weight="bold" font-size="70.0" fill="#615B47" transform="matrix(1.00, 0.00, -0.00, -1.00, 762.0, 591.0)"> </text><text xml:space="preserve" font-family="Didot-Bold" font-weight="bold" font-size="70.0" fill="#615B47" transform="matrix(1.00, 0.00, -0.00, -1.00, 781.5, 591.0)">O</text><text xml:space="preserve" font-family="Didot-Bold" font-weight="bold" font-size="70.0" fill="#615B47" transform="matrix(1.00, 0.00, -0.00, -1.00, 839.8, 591.0)">b</text><text xml:space="preserve" font-family="Didot-Bold" font-weight="bold" font-size="70.0" fill="#615B47" transform="matrix(1.00, 0.00, -0.00, -1.00, 881.3, 591.0)">a</text><text xml:space="preserve" font-family="Didot-Bold" font-weight="bold" font-size="70.0" fill="#615B47" transform="matrix(1.00, 0.00, -0.00, -1.00, 917.6, 591.0)">m</text><text xml:space="preserve" font-family="Didot-Bold" font-weight="bold" font-size="70.0" fill="#615B47" transform="matrix(1.00, 0.00, -0.00, -1.00, 979.9, 591.0)">a</text><text xml:space="preserve" font-family="Didot-Bold" font-weight="bold" font-size="70.0" fill="#615B47" transform="matrix(1.00, 0.00, -0.00, -1.00, 1016.2, 591.0)"> </text><text xml:space="preserve" font-family="Didot-Bold" font-weight="bold" font-size="70.0" fill="#615B47" transform="matrix(1.00, 0.00, -0.00, -1.00, 1035.7, 591.0)">C</text><text xml:space="preserve" font-family="Didot-Bold" font-weight="bold" font-size="70.0" fill="#615B47" transform="matrix(1.00, 0.00, -0.00, -1.00, 1086.2, 591.0)">a</text><text xml:space="preserve" font-family="Didot-Bold" font-weight="bold" font-size="70.0" fill="#615B47" transform="matrix(1.00, 0.00, -0.00, -1.00, 1122.5, 591.0)">m</text><text xml:space="preserve" font-family="Didot-Bold" font-weight="bold" font-size="70.0" fill="#615B47" transform="matrix(1.00, 0.00, -0.00, -1.00, 1184.8, 591.0)">p</text><text xml:space="preserve" font-family="Didot-Bold" font-weight="bold" font-size="70.0" fill="#615B47" transform="matrix(1.00, 0.00, -0.00, -1.00, 1226.3, 591.0)">a</text><text xml:space="preserve" font-family="Didot-Bold" font-weight="bold" font-size="70.0" fill="#615B47" transform="matrix(1.00, 0.00, -0.00, -1.00, 1262.6, 591.0)">i</text><text xml:space="preserve" font-family="Didot-Bold" font-weight="bold" font-size="70.0" fill="#615B47" transform="matrix(1.00, 0.00, -0.00, -1.00, 1284.7, 591.0)">g</text><text xml:space="preserve" font-family="Didot-Bold" font-weight="bold" font-size="70.0" fill="#615B47" transform="matrix(1.00, 0.00, -0.00, -1.00, 1322.2, 591.0)">n</text><text xml:space="preserve" font-family="Didot-Bold" font-weight="bold" font-size="70.0" fill="#615B47" transform="matrix(1.00, 0.00, -0.00, -1.00, 1366.3, 591.0)"> </text><text xml:space="preserve" font-family="Didot-Bold" font-weight="bold" font-size="70.0" fill="#615B47" transform="matrix(1.00, 0.00, -0.00, -1.00, 1385.8, 591.0)">s</text><text xml:space="preserve" font-family="Didot-Bold" font-weight="bold" font-size="70.0" fill="#615B47" transform="matrix(1.00, 0.00, -0.00, -1.00, 1415.6, 591.0)">i</text><text xml:space="preserve" font-family="Didot-Bold" font-weight="bold" font-size="70.0" fill="#615B47" transform="matrix(1.00, 0.00, -0.00, -1.00, 1437.7, 591.0)">t</text><text xml:space="preserve" font-family="Didot-Bold" font-weight="bold" font-size="70.0" fill="#615B47" transform="matrix(1.00, 0.00, -0.00, -1.00, 1463.6, 591.0)">e</text><text xml:space="preserve" font-family="Didot-Bold" font-weight="bold" font-size="70.0" fill="#615B47" transform="matrix(1.00, 0.00, -0.00, -1.00, 1498.6, 591.0)"> </text><text xml:space="preserve" font-family="Didot-Bold" font-weight="bold" font-size="70.0" fill="#615B47" transform="matrix(1.00, 0.00, -0.00, -1.00, 1518.0, 591.0)">6</text><text xml:space="preserve" font-family="Didot-Bold" font-weight="bold" font-size="70.0" fill="#615B47" transform="matrix(1.00, 0.00, -0.00, -1.00, 1557.0, 591.0)">0</text><text xml:space="preserve" font-family="Didot-Bold" font-weight="bold" font-size="70.0" fill="#615B47" transform="matrix(1.00, 0.00, -0.00, -1.00, 1595.9, 591.0)">%</text><text xml:space="preserve" font-family="Didot-Bold" font-weight="bold" font-size="70.0" fill="#615B47" transform="matrix(1.00, 0.00, -0.00, -1.00, 1650.3, 591.0)"> </text><text xml:space="preserve" font-family="Didot-Bold" font-weight="bold" font-size="70.0" fill="#615B47" transform="matrix(1.00, 0.00, -0.00, -1.00, 242.0, 500.0)">f</text><text xml:space="preserve" font-family="Didot-Bold" font-weight="bold" font-size="70.0" fill="#615B47" transform="matrix(1.00, 0.00, -0.00, -1.00, 266.6, 500.0)">a</text><text xml:space="preserve" font-family="Didot-Bold" font-weight="bold" font-size="70.0" fill="#615B47" transform="matrix(1.00, 0.00, -0.00, -1.00, 303.0, 500.0)">s</text><text xml:space="preserve" font-family="Didot-Bold" font-weight="bold" font-size="70.0" fill="#615B47" transform="matrix(1.00, 0.00, -0.00, -1.00, 332.8, 500.0)">t</text><text xml:space="preserve" font-family="Didot-Bold" font-weight="bold" font-size="70.0" fill="#615B47" transform="matrix(1.00, 0.00, -0.00, -1.00, 358.7, 500.0)">e</text><text xml:space="preserve" font-family="Didot-Bold" font-weight="bold" font-size="70.0" fill="#615B47" transform="matrix(1.00, 0.00, -0.00, -1.00, 393.7, 500.0)">r</text><text xml:space="preserve" font-family="Didot-Bold" font-weight="bold" font-size="70.0" fill="#615B47" transform="matrix(1.00, 0.00, -0.00, -1.00, 424.8, 500.0)"> </text><text xml:space="preserve" font-family="Didot-Bold" font-weight="bold" font-size="70.0" fill="#615B47" transform="matrix(1.00, 0.00, -0.00, -1.00, 444.2, 500.0)">i</text><text xml:space="preserve" font-family="Didot-Bold" font-weight="bold" font-size="70.0" fill="#615B47" transform="matrix(1.00, 0.00, -0.00, -1.00, 466.3, 500.0)">n</text><text xml:space="preserve" font-family="Didot-Bold" font-weight="bold" font-size="70.0" fill="#615B47" transform="matrix(1.00, 0.00, -0.00, -1.00, 510.4, 500.0)">c</text><text xml:space="preserve" font-family="Didot-Bold" font-weight="bold" font-size="70.0" fill="#615B47" transform="matrix(1.00, 0.00, -0.00, -1.00, 544.1, 500.0)">r</text><text xml:space="preserve" font-family="Didot-Bold" font-weight="bold" font-size="70.0" fill="#615B47" transform="matrix(1.00, 0.00, -0.00, -1.00, 575.1, 500.0)">e</text><text xml:space="preserve" font-family="Didot-Bold" font-weight="bold" font-size="70.0" fill="#615B47" transform="matrix(1.00, 0.00, -0.00, -1.00, 610.1, 500.0)">a</text><text xml:space="preserve" font-family="Didot-Bold" font-weight="bold" font-size="70.0" fill="#615B47" transform="matrix(1.00, 0.00, -0.00, -1.00, 646.5, 500.0)">s</text><text xml:space="preserve" font-family="Didot-Bold" font-weight="bold" font-size="70.0" fill="#615B47" transform="matrix(1.00, 0.00, -0.00, -1.00, 676.3, 500.0)">e</text><text xml:space="preserve" font-family="Didot-Bold" font-weight="bold" font-size="70.0" fill="#615B47" transform="matrix(1.00, 0.00, -0.00, -1.00, 711.3, 500.0)">d</text><text xml:space="preserve" font-family="Didot-Bold" font-weight="bold" font-size="70.0" fill="#615B47" transform="matrix(1.00, 0.00, -0.00, -1.00, 752.8, 500.0)"> </text><text xml:space="preserve" font-family="Didot-Bold" font-weight="bold" font-size="70.0" fill="#615B47" transform="matrix(1.00, 0.00, -0.00, -1.00, 772.2, 500.0)">d</text><text xml:space="preserve" font-family="Didot-Bold" font-weight="bold" font-size="70.0" fill="#615B47" transform="matrix(1.00, 0.00, -0.00, -1.00, 813.8, 500.0)">o</text><text xml:space="preserve" font-family="Didot-Bold" font-weight="bold" font-size="70.0" fill="#615B47" transform="matrix(1.00, 0.00, -0.00, -1.00, 852.7, 500.0)">n</text><text xml:space="preserve" font-family="Didot-Bold" font-weight="bold" font-size="70.0" fill="#615B47" transform="matrix(1.00, 0.00, -0.00, -1.00, 896.8, 500.0)">a</text><text xml:space="preserve" font-family="Didot-Bold" font-weight="bold" font-size="70.0" fill="#615B47" transform="matrix(1.00, 0.00, -0.00, -1.00, 933.1, 500.0)">t</text><text xml:space="preserve" font-family="Didot-Bold" font-weight="bold" font-size="70.0" fill="#615B47" transform="matrix(1.00, 0.00, -0.00, -1.00, 959.0, 500.0)">i</text><text xml:space="preserve" font-family="Didot-Bold" font-weight="bold" font-size="70.0" fill="#615B47" transform="matrix(1.00, 0.00, -0.00, -1.00, 981.1, 500.0)">o</text><text xml:space="preserve" font-family="Didot-Bold" font-weight="bold" font-size="70.0" fill="#615B47" transform="matrix(1.00, 0.00, -0.00, -1.00, 1020.0, 500.0)">n</text><text xml:space="preserve" font-family="Didot-Bold" font-weight="bold" font-size="70.0" fill="#615B47" transform="matrix(1.00, 0.00, -0.00, -1.00, 1064.1, 500.0)"> </text><text xml:space="preserve" font-family="Didot-Bold" font-weight="bold" font-size="70.0" fill="#615B47" transform="matrix(1.00, 0.00, -0.00, -1.00, 1083.5, 500.0)">c</text><text xml:space="preserve" font-family="Didot-Bold" font-weight="bold" font-size="70.0" fill="#615B47" transform="matrix(1.00, 0.00, -0.00, -1.00, 1117.2, 500.0)">o</text><text xml:space="preserve" font-family="Didot-Bold" font-weight="bold" font-size="70.0" fill="#615B47" transform="matrix(1.00, 0.00, -0.00, -1.00, 1156.1, 500.0)">n</text><text xml:space="preserve" font-family="Didot-Bold" font-weight="bold" font-size="70.0" fill="#615B47" transform="matrix(1.00, 0.00, -0.00, -1.00, 1200.2, 500.0)">v</text><text xml:space="preserve" font-family="Didot-Bold" font-weight="bold" font-size="70.0" fill="#615B47" transform="matrix(1.00, 0.00, -0.00, -1.00, 1231.9, 500.0)">e</text><text xml:space="preserve" font-family="Didot-Bold" font-weight="bold" font-size="70.0" fill="#615B47" transform="matrix(1.00, 0.00, -0.00, -1.00, 1266.9, 500.0)">r</text><text xml:space="preserve" font-family="Didot-Bold" font-weight="bold" font-size="70.0" fill="#615B47" transform="matrix(1.00, 0.00, -0.00, -1.00, 1298.0, 500.0)">s</text><text xml:space="preserve" font-family="Didot-Bold" font-weight="bold" font-size="70.0" fill="#615B47" transform="matrix(1.00, 0.00, -0.00, -1.00, 1327.8, 500.0)">i</text><text xml:space="preserve" font-family="Didot-Bold" font-weight="bold" font-size="70.0" fill="#615B47" transform="matrix(1.00, 0.00, -0.00, -1.00, 1349.9, 500.0)">o</text><text xml:space="preserve" font-family="Didot-Bold" font-weight="bold" font-size="70.0" fill="#615B47" transform="matrix(1.00, 0.00, -0.00, -1.00, 1388.8, 500.0)">n</text><text xml:space="preserve" font-family="Didot-Bold" font-weight="bold" font-size="70.0" fill="#615B47" transform="matrix(1.00, 0.00, -0.00, -1.00, 1432.9, 500.0)"> </text><text xml:space="preserve" font-family="Didot-Bold" font-weight="bold" font-size="70.0" fill="#615B47" transform="matrix(1.00, 0.00, -0.00, -1.00, 1452.4, 500.0)">b</text><text xml:space="preserve" font-family="Didot-Bold" font-weight="bold" font-size="70.0" fill="#615B47" transform="matrix(1.00, 0.00, -0.00, -1.00, 1492.8, 500.0)">y</text><text xml:space="preserve" font-family="Didot-Bold" font-weight="bold" font-size="70.0" fill="#615B47" transform="matrix(1.00, 0.00, -0.00, -1.00, 1526.5, 500.0)"> </text><text xml:space="preserve" font-family="Didot-Bold" font-weight="bold" font-size="70.0" fill="#615B47" transform="matrix(1.00, 0.00, -0.00, -1.00, 1546.0, 500.0)">1</text><text xml:space="preserve" font-family="Didot-Bold" font-weight="bold" font-size="70.0" fill="#615B47" transform="matrix(1.00, 0.00, -0.00, -1.00, 1584.9, 500.0)">4</text><text xml:space="preserve" font-family="Didot-Bold" font-weight="bold" font-size="70.0" fill="#615B47" transform="matrix(1.00, 0.00, -0.00, -1.00, 1623.8, 500.0)">%</text><text xml:space="preserve" font-family="Didot-Bold" font-weight="bold" font-size="70.0" fill="#615B47" transform="matrix(1.00, 0.00, -0.00, -1.00, 1678.3, 500.0)"> </text><text xml:space="preserve" font-family="Didot-Bold" font-weight="bold" font-size="24.0" fill="#51563E" transform="matrix(1.00, 0.00, -0.00, -1.00, 953.0, 11.0)">6</text></g></svg>