<?xml version="1.0" encoding="UTF-8" standalone="no"?><svg xmlns="http://www.w3.org/2000/svg" xmlns:xlink="http://www.w3.org/1999/xlink" clip-rule="evenodd" stroke-miterlimit="4.00" viewBox="0 0 1920 1080"><desc>SVG generated by Keynote</desc><defs></defs><g transform="matrix(1.00, 0.00, -0.00, -1.00, 0.0, 1080.0)"><g><clipPath id="clip-60"><path d="M 0.0 1080.0 L 1920.0 1080.0 L 1920.0 0.0 L 0.0 0.0 Z M 0.0 1080.0 "></path></clipPath><g clip-path="url(#clip-60)"><image xlink:href="../../95F339C0-7E9C-479A-A4F3-8E8E57B86552/assets/88831F5924BAFE0A5231EE8BF08C848B.jpeg" width="1365.00" height="767.00" transform="matrix(1.41, 0.00, -0.00, -1.41, 0.0, 1080.0)"></image></g></g><text xml:space="preserve" font-family="Didot" font-size="88.0" fill="#846049" transform="matrix(1.00, 0.00, -0.00, -1.00, 372.0, 945.0)">K</text><text xml:space="preserve" font-family="Didot" font-size="88.0" fill="#846049" transform="matrix(1.00, 0.00, -0.00, -1.00, 437.2, 945.0)">P</text><text xml:space="preserve" font-family="Didot" font-size="88.0" fill="#846049" transform="matrix(1.00, 0.00, -0.00, -1.00, 494.2, 945.0)">I</text><text xml:space="preserve" font-family="Didot" font-size="88.0" fill="#846049" transform="matrix(1.00, 0.00, -0.00, -1.00, 528.3, 945.0)">’</text><text xml:space="preserve" font-family="Didot" font-size="88.0" fill="#846049" transform="matrix(1.00, 0.00, -0.00, -1.00, 548.0, 945.0)">s</text><text xml:space="preserve" font-family="Didot" font-size="88.0" fill="#846049" transform="matrix(1.00, 0.00, -0.00, -1.00, 585.4, 945.0)"> </text><text xml:space="preserve" font-family="Didot" font-size="88.0" fill="#846049" transform="matrix(1.00, 0.00, -0.00, -1.00, 609.9, 945.0)">t</text><text xml:space="preserve" font-family="Didot" font-size="88.0" fill="#846049" transform="matrix(1.00, 0.00, -0.00, -1.00, 639.2, 945.0)">o</text><text xml:space="preserve" font-family="Didot" font-size="88.0" fill="#846049" transform="matrix(1.00, 0.00, -0.00, -1.00, 688.1, 945.0)"> </text><text xml:space="preserve" font-family="Didot" font-size="88.0" fill="#846049" transform="matrix(1.00, 0.00, -0.00, -1.00, 712.6, 945.0)">M</text><text xml:space="preserve" font-family="Didot" font-size="88.0" fill="#846049" transform="matrix(1.00, 0.00, -0.00, -1.00, 789.1, 945.0)">e</text><text xml:space="preserve" font-family="Didot" font-size="88.0" fill="#846049" transform="matrix(1.00, 0.00, -0.00, -1.00, 833.1, 945.0)">a</text><text xml:space="preserve" font-family="Didot" font-size="88.0" fill="#846049" transform="matrix(1.00, 0.00, -0.00, -1.00, 875.4, 945.0)">s</text><text xml:space="preserve" font-family="Didot" font-size="88.0" fill="#846049" transform="matrix(1.00, 0.00, -0.00, -1.00, 912.9, 945.0)">u</text><text xml:space="preserve" font-family="Didot" font-size="88.0" fill="#846049" transform="matrix(1.00, 0.00, -0.00, -1.00, 965.1, 945.0)">r</text><text xml:space="preserve" font-family="Didot" font-size="88.0" fill="#846049" transform="matrix(1.00, 0.00, -0.00, -1.00, 1000.9, 945.0)">e</text><text xml:space="preserve" font-family="Didot" font-size="88.0" fill="#846049" transform="matrix(1.00, 0.00, -0.00, -1.00, 1044.9, 945.0)"> </text><text xml:space="preserve" font-family="Didot" font-size="88.0" fill="#846049" transform="matrix(1.00, 0.00, -0.00, -1.00, 1069.3, 945.0)">P</text><text xml:space="preserve" font-family="Didot" font-size="88.0" fill="#846049" transform="matrix(1.00, 0.00, -0.00, -1.00, 1119.3, 945.0)">e</text><text xml:space="preserve" font-family="Didot" font-size="88.0" fill="#846049" transform="matrix(1.00, 0.00, -0.00, -1.00, 1163.3, 945.0)">r</text><text xml:space="preserve" font-family="Didot" font-size="88.0" fill="#846049" transform="matrix(1.00, 0.00, -0.00, -1.00, 1199.1, 945.0)">f</text><text xml:space="preserve" font-family="Didot" font-size="88.0" fill="#846049" transform="matrix(1.00, 0.00, -0.00, -1.00, 1227.5, 945.0)">o</text><text xml:space="preserve" font-family="Didot" font-size="88.0" fill="#846049" transform="matrix(1.00, 0.00, -0.00, -1.00, 1276.4, 945.0)">r</text><text xml:space="preserve" font-family="Didot" font-size="88.0" fill="#846049" transform="matrix(1.00, 0.00, -0.00, -1.00, 1312.2, 945.0)">m</text><text xml:space="preserve" font-family="Didot" font-size="88.0" fill="#846049" transform="matrix(1.00, 0.00, -0.00, -1.00, 1388.8, 945.0)">a</text><text xml:space="preserve" font-family="Didot" font-size="88.0" fill="#846049" transform="matrix(1.00, 0.00, -0.00, -1.00, 1431.1, 945.0)">n</text><text xml:space="preserve" font-family="Didot" font-size="88.0" fill="#846049" transform="matrix(1.00, 0.00, -0.00, -1.00, 1484.9, 945.0)">c</text><text xml:space="preserve" font-family="Didot" font-size="88.0" fill="#846049" transform="matrix(1.00, 0.00, -0.00, -1.00, 1527.2, 945.0)">e</text><text xml:space="preserve" font-family="Didot" font-size="88.0" fill="#846049" transform="matrix(1.00, 0.00, -0.00, -1.00, 1571.2, 945.0)">?</text><text xml:space="preserve" font-family="Didot-Bold" font-weight="bold" font-size="50.0" fill="#615B47" transform="matrix(1.00, 0.00, -0.00, -1.00, 265.0, 773.0)">S</text><text xml:space="preserve" font-family="Didot-Bold" font-weight="bold" font-size="50.0" fill="#615B47" transform="matrix(1.00, 0.00, -0.00, -1.00, 297.4, 773.0)">e</text><text xml:space="preserve" font-family="Didot-Bold" font-weight="bold" font-size="50.0" fill="#615B47" transform="matrix(1.00, 0.00, -0.00, -1.00, 322.4, 773.0)">r</text><text xml:space="preserve" font-family="Didot-Bold" font-weight="bold" font-size="50.0" fill="#615B47" transform="matrix(1.00, 0.00, -0.00, -1.00, 344.6, 773.0)">v</text><text xml:space="preserve" font-family="Didot-Bold" font-weight="bold" font-size="50.0" fill="#615B47" transform="matrix(1.00, 0.00, -0.00, -1.00, 367.8, 773.0)">i</text><text xml:space="preserve" font-family="Didot-Bold" font-weight="bold" font-size="50.0" fill="#615B47" transform="matrix(1.00, 0.00, -0.00, -1.00, 383.5, 773.0)">c</text><text xml:space="preserve" font-family="Didot-Bold" font-weight="bold" font-size="50.0" fill="#615B47" transform="matrix(1.00, 0.00, -0.00, -1.00, 407.6, 773.0)">e</text><text xml:space="preserve" font-family="Didot-Bold" font-weight="bold" font-size="50.0" fill="#615B47" transform="matrix(1.00, 0.00, -0.00, -1.00, 432.6, 773.0)"> </text><text xml:space="preserve" font-family="Didot-Bold" font-weight="bold" font-size="50.0" fill="#615B47" transform="matrix(1.00, 0.00, -0.00, -1.00, 446.5, 773.0)">O</text><text xml:space="preserve" font-family="Didot-Bold" font-weight="bold" font-size="50.0" fill="#615B47" transform="matrix(1.00, 0.00, -0.00, -1.00, 488.1, 773.0)">r</text><text xml:space="preserve" font-family="Didot-Bold" font-weight="bold" font-size="50.0" fill="#615B47" transform="matrix(1.00, 0.00, -0.00, -1.00, 510.3, 773.0)">i</text><text xml:space="preserve" font-family="Didot-Bold" font-weight="bold" font-size="50.0" fill="#615B47" transform="matrix(1.00, 0.00, -0.00, -1.00, 526.0, 773.0)">e</text><text xml:space="preserve" font-family="Didot-Bold" font-weight="bold" font-size="50.0" fill="#615B47" transform="matrix(1.00, 0.00, -0.00, -1.00, 551.0, 773.0)">n</text><text xml:space="preserve" font-family="Didot-Bold" font-weight="bold" font-size="50.0" fill="#615B47" transform="matrix(1.00, 0.00, -0.00, -1.00, 582.5, 773.0)">t</text><text xml:space="preserve" font-family="Didot-Bold" font-weight="bold" font-size="50.0" fill="#615B47" transform="matrix(1.00, 0.00, -0.00, -1.00, 601.0, 773.0)">e</text><text xml:space="preserve" font-family="Didot-Bold" font-weight="bold" font-size="50.0" fill="#615B47" transform="matrix(1.00, 0.00, -0.00, -1.00, 626.0, 773.0)">d</text><text xml:space="preserve" font-family="Didot-Bold" font-weight="bold" font-size="50.0" fill="#615B47" transform="matrix(1.00, 0.00, -0.00, -1.00, 655.7, 773.0)"> </text><text xml:space="preserve" font-family="Didot-Bold" font-weight="bold" font-size="50.0" fill="#615B47" transform="matrix(1.00, 0.00, -0.00, -1.00, 666.8, 773.0)">A</text><text xml:space="preserve" font-family="Didot-Bold" font-weight="bold" font-size="50.0" fill="#615B47" transform="matrix(1.00, 0.00, -0.00, -1.00, 704.8, 773.0)">r</text><text xml:space="preserve" font-family="Didot-Bold" font-weight="bold" font-size="50.0" fill="#615B47" transform="matrix(1.00, 0.00, -0.00, -1.00, 727.0, 773.0)">c</text><text xml:space="preserve" font-family="Didot-Bold" font-weight="bold" font-size="50.0" fill="#615B47" transform="matrix(1.00, 0.00, -0.00, -1.00, 750.5, 773.0)">h</text><text xml:space="preserve" font-family="Didot-Bold" font-weight="bold" font-size="50.0" fill="#615B47" transform="matrix(1.00, 0.00, -0.00, -1.00, 782.0, 773.0)">i</text><text xml:space="preserve" font-family="Didot-Bold" font-weight="bold" font-size="50.0" fill="#615B47" transform="matrix(1.00, 0.00, -0.00, -1.00, 797.8, 773.0)">t</text><text xml:space="preserve" font-family="Didot-Bold" font-weight="bold" font-size="50.0" fill="#615B47" transform="matrix(1.00, 0.00, -0.00, -1.00, 816.3, 773.0)">e</text><text xml:space="preserve" font-family="Didot-Bold" font-weight="bold" font-size="50.0" fill="#615B47" transform="matrix(1.00, 0.00, -0.00, -1.00, 841.3, 773.0)">c</text><text xml:space="preserve" font-family="Didot-Bold" font-weight="bold" font-size="50.0" fill="#615B47" transform="matrix(1.00, 0.00, -0.00, -1.00, 865.3, 773.0)">t</text><text xml:space="preserve" font-family="Didot-Bold" font-weight="bold" font-size="50.0" fill="#615B47" transform="matrix(1.00, 0.00, -0.00, -1.00, 883.8, 773.0)">u</text><text xml:space="preserve" font-family="Didot-Bold" font-weight="bold" font-size="50.0" fill="#615B47" transform="matrix(1.00, 0.00, -0.00, -1.00, 914.4, 773.0)">r</text><text xml:space="preserve" font-family="Didot-Bold" font-weight="bold" font-size="50.0" fill="#615B47" transform="matrix(1.00, 0.00, -0.00, -1.00, 936.6, 773.0)">e</text><text xml:space="preserve" font-family="Didot-Bold" font-weight="bold" font-size="50.0" fill="#615B47" transform="matrix(1.00, 0.00, -0.00, -1.00, 961.6, 773.0)">:</text><text xml:space="preserve" font-family="Didot-Bold" font-weight="bold" font-size="50.0" fill="#615B47" transform="matrix(1.00, 0.00, -0.00, -1.00, 972.7, 773.0)"> </text><text xml:space="preserve" font-family="ZapfDingbatsITC" font-size="45.0" fill="#615B47" transform="matrix(1.00, 0.00, -0.00, -1.00, 338.6, 643.8)">✦</text><text xml:space="preserve" font-family="Didot" font-size="45.0" fill="#615B47" transform="matrix(1.00, 0.00, -0.00, -1.00, 374.0, 644.0)"> </text><text xml:space="preserve" font-family="Didot" font-size="45.0" fill="#615B47" transform="matrix(1.00, 0.00, -0.00, -1.00, 384.0, 644.0)">A</text><text xml:space="preserve" font-family="Didot" font-size="45.0" fill="#615B47" transform="matrix(1.00, 0.00, -0.00, -1.00, 415.4, 644.0)">v</text><text xml:space="preserve" font-family="Didot" font-size="45.0" fill="#615B47" transform="matrix(1.00, 0.00, -0.00, -1.00, 436.6, 644.0)">a</text><text xml:space="preserve" font-family="Didot" font-size="45.0" fill="#615B47" transform="matrix(1.00, 0.00, -0.00, -1.00, 458.2, 644.0)">i</text><text xml:space="preserve" font-family="Didot" font-size="45.0" fill="#615B47" transform="matrix(1.00, 0.00, -0.00, -1.00, 471.5, 644.0)">l</text><text xml:space="preserve" font-family="Didot" font-size="45.0" fill="#615B47" transform="matrix(1.00, 0.00, -0.00, -1.00, 484.8, 644.0)">a</text><text xml:space="preserve" font-family="Didot" font-size="45.0" fill="#615B47" transform="matrix(1.00, 0.00, -0.00, -1.00, 506.5, 644.0)">b</text><text xml:space="preserve" font-family="Didot" font-size="45.0" fill="#615B47" transform="matrix(1.00, 0.00, -0.00, -1.00, 533.2, 644.0)">i</text><text xml:space="preserve" font-family="Didot" font-size="45.0" fill="#615B47" transform="matrix(1.00, 0.00, -0.00, -1.00, 546.5, 644.0)">l</text><text xml:space="preserve" font-family="Didot" font-size="45.0" fill="#615B47" transform="matrix(1.00, 0.00, -0.00, -1.00, 559.8, 644.0)">i</text><text xml:space="preserve" font-family="Didot" font-size="45.0" fill="#615B47" transform="matrix(1.00, 0.00, -0.00, -1.00, 573.1, 644.0)">t</text><text xml:space="preserve" font-family="Didot" font-size="45.0" fill="#615B47" transform="matrix(1.00, 0.00, -0.00, -1.00, 588.1, 644.0)">y</text><text xml:space="preserve" font-family="Didot" font-size="45.0" fill="#615B47" transform="matrix(1.00, 0.00, -0.00, -1.00, 609.8, 644.0)"> </text><text xml:space="preserve" font-family="ZapfDingbatsITC" font-size="45.0" fill="#615B47" transform="matrix(1.00, 0.00, -0.00, -1.00, 338.6, 560.4)">✦</text><text xml:space="preserve" font-family="Didot" font-size="45.0" fill="#615B47" transform="matrix(1.00, 0.00, -0.00, -1.00, 374.0, 561.0)"> </text><text xml:space="preserve" font-family="Didot" font-size="45.0" fill="#615B47" transform="matrix(1.00, 0.00, -0.00, -1.00, 386.5, 561.0)">R</text><text xml:space="preserve" font-family="Didot" font-size="45.0" fill="#615B47" transform="matrix(1.00, 0.00, -0.00, -1.00, 419.0, 561.0)">e</text><text xml:space="preserve" font-family="Didot" font-size="45.0" fill="#615B47" transform="matrix(1.00, 0.00, -0.00, -1.00, 441.5, 561.0)">s</text><text xml:space="preserve" font-family="Didot" font-size="45.0" fill="#615B47" transform="matrix(1.00, 0.00, -0.00, -1.00, 460.7, 561.0)">p</text><text xml:space="preserve" font-family="Didot" font-size="45.0" fill="#615B47" transform="matrix(1.00, 0.00, -0.00, -1.00, 487.4, 561.0)">o</text><text xml:space="preserve" font-family="Didot" font-size="45.0" fill="#615B47" transform="matrix(1.00, 0.00, -0.00, -1.00, 512.4, 561.0)">n</text><text xml:space="preserve" font-family="Didot" font-size="45.0" fill="#615B47" transform="matrix(1.00, 0.00, -0.00, -1.00, 539.9, 561.0)">s</text><text xml:space="preserve" font-family="Didot" font-size="45.0" fill="#615B47" transform="matrix(1.00, 0.00, -0.00, -1.00, 559.0, 561.0)">e</text><text xml:space="preserve" font-family="Didot" font-size="45.0" fill="#615B47" transform="matrix(1.00, 0.00, -0.00, -1.00, 581.5, 561.0)"> </text><text xml:space="preserve" font-family="Didot" font-size="45.0" fill="#615B47" transform="matrix(1.00, 0.00, -0.00, -1.00, 590.0, 561.0)">T</text><text xml:space="preserve" font-family="Didot" font-size="45.0" fill="#615B47" transform="matrix(1.00, 0.00, -0.00, -1.00, 619.7, 561.0)">i</text><text xml:space="preserve" font-family="Didot" font-size="45.0" fill="#615B47" transform="matrix(1.00, 0.00, -0.00, -1.00, 633.0, 561.0)">m</text><text xml:space="preserve" font-family="Didot" font-size="45.0" fill="#615B47" transform="matrix(1.00, 0.00, -0.00, -1.00, 672.1, 561.0)">e</text><text xml:space="preserve" font-family="Didot-Italic" font-style="italic" font-size="45.0" fill="#615B47" transform="matrix(1.00, 0.00, -0.00, -1.00, 694.6, 561.0)"> </text><text xml:space="preserve" font-family="Didot-Bold" font-weight="bold" font-size="50.0" fill="#615B47" transform="matrix(1.00, 0.00, -0.00, -1.00, 220.0, 400.0)"> </text><text xml:space="preserve" font-family="Didot-Bold" font-weight="bold" font-size="50.0" fill="#615B47" transform="matrix(1.00, 0.00, -0.00, -1.00, 233.9, 400.0)"> </text><text xml:space="preserve" font-family="Didot-Bold" font-weight="bold" font-size="50.0" fill="#615B47" transform="matrix(1.00, 0.00, -0.00, -1.00, 247.8, 400.0)">E</text><text xml:space="preserve" font-family="Didot-Bold" font-weight="bold" font-size="50.0" fill="#615B47" transform="matrix(1.00, 0.00, -0.00, -1.00, 283.9, 400.0)">f</text><text xml:space="preserve" font-family="Didot-Bold" font-weight="bold" font-size="50.0" fill="#615B47" transform="matrix(1.00, 0.00, -0.00, -1.00, 301.5, 400.0)">ﬁ</text><text xml:space="preserve" font-family="Didot-Bold" font-weight="bold" font-size="50.0" fill="#615B47" transform="matrix(1.00, 0.00, -0.00, -1.00, 333.0, 400.0)">c</text><text xml:space="preserve" font-family="Didot-Bold" font-weight="bold" font-size="50.0" fill="#615B47" transform="matrix(1.00, 0.00, -0.00, -1.00, 357.1, 400.0)">i</text><text xml:space="preserve" font-family="Didot-Bold" font-weight="bold" font-size="50.0" fill="#615B47" transform="matrix(1.00, 0.00, -0.00, -1.00, 372.8, 400.0)">e</text><text xml:space="preserve" font-family="Didot-Bold" font-weight="bold" font-size="50.0" fill="#615B47" transform="matrix(1.00, 0.00, -0.00, -1.00, 397.8, 400.0)">n</text><text xml:space="preserve" font-family="Didot-Bold" font-weight="bold" font-size="50.0" fill="#615B47" transform="matrix(1.00, 0.00, -0.00, -1.00, 429.3, 400.0)">c</text><text xml:space="preserve" font-family="Didot-Bold" font-weight="bold" font-size="50.0" fill="#615B47" transform="matrix(1.00, 0.00, -0.00, -1.00, 453.4, 400.0)">y</text><text xml:space="preserve" font-family="Didot-Bold" font-weight="bold" font-size="50.0" fill="#615B47" transform="matrix(1.00, 0.00, -0.00, -1.00, 477.4, 400.0)"> </text><text xml:space="preserve" font-family="Didot-Bold" font-weight="bold" font-size="50.0" fill="#615B47" transform="matrix(1.00, 0.00, -0.00, -1.00, 491.3, 400.0)">O</text><text xml:space="preserve" font-family="Didot-Bold" font-weight="bold" font-size="50.0" fill="#615B47" transform="matrix(1.00, 0.00, -0.00, -1.00, 533.0, 400.0)">r</text><text xml:space="preserve" font-family="Didot-Bold" font-weight="bold" font-size="50.0" fill="#615B47" transform="matrix(1.00, 0.00, -0.00, -1.00, 555.2, 400.0)">i</text><text xml:space="preserve" font-family="Didot-Bold" font-weight="bold" font-size="50.0" fill="#615B47" transform="matrix(1.00, 0.00, -0.00, -1.00, 570.9, 400.0)">e</text><text xml:space="preserve" font-family="Didot-Bold" font-weight="bold" font-size="50.0" fill="#615B47" transform="matrix(1.00, 0.00, -0.00, -1.00, 595.9, 400.0)">n</text><text xml:space="preserve" font-family="Didot-Bold" font-weight="bold" font-size="50.0" fill="#615B47" transform="matrix(1.00, 0.00, -0.00, -1.00, 627.4, 400.0)">t</text><text xml:space="preserve" font-family="Didot-Bold" font-weight="bold" font-size="50.0" fill="#615B47" transform="matrix(1.00, 0.00, -0.00, -1.00, 645.9, 400.0)">e</text><text xml:space="preserve" font-family="Didot-Bold" font-weight="bold" font-size="50.0" fill="#615B47" transform="matrix(1.00, 0.00, -0.00, -1.00, 670.9, 400.0)">d</text><text xml:space="preserve" font-family="Didot-Bold" font-weight="bold" font-size="50.0" fill="#615B47" transform="matrix(1.00, 0.00, -0.00, -1.00, 700.5, 400.0)"> </text><text xml:space="preserve" font-family="Didot-Bold" font-weight="bold" font-size="50.0" fill="#615B47" transform="matrix(1.00, 0.00, -0.00, -1.00, 711.7, 400.0)">A</text><text xml:space="preserve" font-family="Didot-Bold" font-weight="bold" font-size="50.0" fill="#615B47" transform="matrix(1.00, 0.00, -0.00, -1.00, 749.6, 400.0)">r</text><text xml:space="preserve" font-family="Didot-Bold" font-weight="bold" font-size="50.0" fill="#615B47" transform="matrix(1.00, 0.00, -0.00, -1.00, 771.9, 400.0)">c</text><text xml:space="preserve" font-family="Didot-Bold" font-weight="bold" font-size="50.0" fill="#615B47" transform="matrix(1.00, 0.00, -0.00, -1.00, 795.4, 400.0)">h</text><text xml:space="preserve" font-family="Didot-Bold" font-weight="bold" font-size="50.0" fill="#615B47" transform="matrix(1.00, 0.00, -0.00, -1.00, 826.9, 400.0)">i</text><text xml:space="preserve" font-family="Didot-Bold" font-weight="bold" font-size="50.0" fill="#615B47" transform="matrix(1.00, 0.00, -0.00, -1.00, 842.6, 400.0)">t</text><text xml:space="preserve" font-family="Didot-Bold" font-weight="bold" font-size="50.0" fill="#615B47" transform="matrix(1.00, 0.00, -0.00, -1.00, 861.1, 400.0)">e</text><text xml:space="preserve" font-family="Didot-Bold" font-weight="bold" font-size="50.0" fill="#615B47" transform="matrix(1.00, 0.00, -0.00, -1.00, 886.1, 400.0)">c</text><text xml:space="preserve" font-family="Didot-Bold" font-weight="bold" font-size="50.0" fill="#615B47" transform="matrix(1.00, 0.00, -0.00, -1.00, 910.2, 400.0)">t</text><text xml:space="preserve" font-family="Didot-Bold" font-weight="bold" font-size="50.0" fill="#615B47" transform="matrix(1.00, 0.00, -0.00, -1.00, 928.7, 400.0)">u</text><text xml:space="preserve" font-family="Didot-Bold" font-weight="bold" font-size="50.0" fill="#615B47" transform="matrix(1.00, 0.00, -0.00, -1.00, 959.2, 400.0)">r</text><text xml:space="preserve" font-family="Didot-Bold" font-weight="bold" font-size="50.0" fill="#615B47" transform="matrix(1.00, 0.00, -0.00, -1.00, 981.4, 400.0)">e</text><text xml:space="preserve" font-family="Didot-Bold" font-weight="bold" font-size="50.0" fill="#615B47" transform="matrix(1.00, 0.00, -0.00, -1.00, 1006.4, 400.0)">:</text><text xml:space="preserve" font-family="Didot-Bold" font-weight="bold" font-size="50.0" fill="#615B47" transform="matrix(1.00, 0.00, -0.00, -1.00, 1017.6, 400.0)"> </text><text xml:space="preserve" font-family="ZapfDingbatsITC" font-size="45.0" fill="#615B47" transform="matrix(1.00, 0.00, -0.00, -1.00, 356.6, 270.9)">✦</text><text xml:space="preserve" font-family="Didot" font-size="45.0" fill="#615B47" transform="matrix(1.00, 0.00, -0.00, -1.00, 392.0, 271.0)"> </text><text xml:space="preserve" font-family="Didot" font-size="45.0" fill="#615B47" transform="matrix(1.00, 0.00, -0.00, -1.00, 400.5, 271.0)">T</text><text xml:space="preserve" font-family="Didot" font-size="45.0" fill="#615B47" transform="matrix(1.00, 0.00, -0.00, -1.00, 431.2, 271.0)">h</text><text xml:space="preserve" font-family="Didot" font-size="45.0" fill="#615B47" transform="matrix(1.00, 0.00, -0.00, -1.00, 458.7, 271.0)">r</text><text xml:space="preserve" font-family="Didot" font-size="45.0" fill="#615B47" transform="matrix(1.00, 0.00, -0.00, -1.00, 477.0, 271.0)">o</text><text xml:space="preserve" font-family="Didot" font-size="45.0" fill="#615B47" transform="matrix(1.00, 0.00, -0.00, -1.00, 502.1, 271.0)">u</text><text xml:space="preserve" font-family="Didot" font-size="45.0" fill="#615B47" transform="matrix(1.00, 0.00, -0.00, -1.00, 528.8, 271.0)">g</text><text xml:space="preserve" font-family="Didot" font-size="45.0" fill="#615B47" transform="matrix(1.00, 0.00, -0.00, -1.00, 552.1, 271.0)">p</text><text xml:space="preserve" font-family="Didot" font-size="45.0" fill="#615B47" transform="matrix(1.00, 0.00, -0.00, -1.00, 578.8, 271.0)">u</text><text xml:space="preserve" font-family="Didot" font-size="45.0" fill="#615B47" transform="matrix(1.00, 0.00, -0.00, -1.00, 605.5, 271.0)">t</text><text xml:space="preserve" font-family="Didot" font-size="45.0" fill="#615B47" transform="matrix(1.00, 0.00, -0.00, -1.00, 620.5, 271.0)"> </text><text xml:space="preserve" font-family="ZapfDingbatsITC" font-size="45.0" fill="#615B47" transform="matrix(1.00, 0.00, -0.00, -1.00, 356.6, 187.5)">✦</text><text xml:space="preserve" font-family="Didot" font-size="45.0" fill="#615B47" transform="matrix(1.00, 0.00, -0.00, -1.00, 392.0, 188.0)"> </text><text xml:space="preserve" font-family="Didot" font-size="45.0" fill="#615B47" transform="matrix(1.00, 0.00, -0.00, -1.00, 404.5, 188.0)">U</text><text xml:space="preserve" font-family="Didot" font-size="45.0" fill="#615B47" transform="matrix(1.00, 0.00, -0.00, -1.00, 438.7, 188.0)">t</text><text xml:space="preserve" font-family="Didot" font-size="45.0" fill="#615B47" transform="matrix(1.00, 0.00, -0.00, -1.00, 453.6, 188.0)">i</text><text xml:space="preserve" font-family="Didot" font-size="45.0" fill="#615B47" transform="matrix(1.00, 0.00, -0.00, -1.00, 467.0, 188.0)">l</text><text xml:space="preserve" font-family="Didot" font-size="45.0" fill="#615B47" transform="matrix(1.00, 0.00, -0.00, -1.00, 480.3, 188.0)">i</text><text xml:space="preserve" font-family="Didot" font-size="45.0" fill="#615B47" transform="matrix(1.00, 0.00, -0.00, -1.00, 493.6, 188.0)">z</text><text xml:space="preserve" font-family="Didot" font-size="45.0" fill="#615B47" transform="matrix(1.00, 0.00, -0.00, -1.00, 512.8, 188.0)">a</text><text xml:space="preserve" font-family="Didot" font-size="45.0" fill="#615B47" transform="matrix(1.00, 0.00, -0.00, -1.00, 534.4, 188.0)">t</text><text xml:space="preserve" font-family="Didot" font-size="45.0" fill="#615B47" transform="matrix(1.00, 0.00, -0.00, -1.00, 549.4, 188.0)">i</text><text xml:space="preserve" font-family="Didot" font-size="45.0" fill="#615B47" transform="matrix(1.00, 0.00, -0.00, -1.00, 562.7, 188.0)">o</text><text xml:space="preserve" font-family="Didot" font-size="45.0" fill="#615B47" transform="matrix(1.00, 0.00, -0.00, -1.00, 587.8, 188.0)">n</text><text xml:space="preserve" font-family="Didot-Bold" font-weight="bold" font-size="24.0" fill="#51563E" transform="matrix(1.00, 0.00, -0.00, -1.00, 946.0, 11.0)">1</text><text xml:space="preserve" font-family="Didot-Bold" font-weight="bold" font-size="24.0" fill="#51563E" transform="matrix(1.00, 0.00, -0.00, -1.00, 959.3, 11.0)">0</text></g></svg>